<svg width="27" height="26" viewBox="0 0 27 26" fill="none" xmlns="http://www.w3.org/2000/svg">
<path d="M23.5425 15.4295C19.6622 18.6197 15.3076 20.8736 12.2464 24.6879C12.0308 24.9307 11.6859 24.9653 11.341 24.8613C11.1254 25.0347 10.7374 25.0693 10.4356 24.8266C6.90018 21.6018 4.78753 17.8568 3.27851 13.8691C2.07129 10.6789 -0.429363 5.7203 2.0713 2.70351C3.70967 0.692323 7.0295 0.5883 9.65951 1.7326C12.5913 3.0156 13.7123 5.37354 14.2728 7.76616C15.4369 6.03237 17.1615 4.54134 19.8777 4.22925C23.0251 3.8825 25.7845 5.5816 26.6899 7.90487C27.7678 10.7483 25.8707 13.4877 23.5425 15.4295ZM24.6635 7.69683C23.3269 5.54693 20.0502 5.09614 17.8082 6.41382C16.0405 7.41942 15.2645 9.04917 14.5746 10.6096C14.3159 11.2337 12.9794 11.0604 12.8931 10.4015C12.5051 7.62747 12.0308 3.91717 8.15049 2.66885C6.7277 2.04468 5.64983 2.35677 4.78753 3.53574C3.01982 4.05588 2.37311 4.99212 2.89049 6.41382C2.97672 7.66215 3.40787 8.91048 3.75279 10.1241C5.17558 14.9787 7.24508 19.6253 10.9098 23.7863C13.6261 20.1801 17.4202 17.9955 21.2574 15.1868C23.7581 13.3836 26.4312 10.5402 24.6635 7.69683Z" fill="#1F1F1F"/>
</svg>
