<svg width="224" height="59" viewBox="0 0 224 59" fill="none" xmlns="http://www.w3.org/2000/svg">
<g filter="url(#filter0_d_5_3746)">
<path d="M7.71451 38.615L4.05365 33.2331L2.0318 11.7056C3.79985 8.64093 9.97196 2.33217 20.516 1.61458C33.6962 0.717603 39.7929 -0.189712 54.9394 0.0345332C70.0859 0.258778 162.924 0.484959 168.253 0.484959C173.582 0.484959 199.98 -0.187592 207.001 3.1759C212.618 5.86669 217.774 11.0244 219.65 13.2669C219.09 13.7154 218.309 15.1056 219.66 17.079C221.012 19.0523 221.731 22.0871 221.921 23.3578C221.175 24.1053 219.684 25.7797 219.686 26.4972C219.688 27.3942 214.64 27.6185 217.168 28.7397C219.19 29.6367 219.702 32.2529 219.705 33.4488C217.744 34.5701 212.927 36.8574 209.337 37.0368C205.747 37.2162 202.608 38.0085 201.487 38.3822L201.492 40.1763C203.176 40.4753 206.207 41.1629 204.861 41.5216C203.18 41.9701 201.494 40.8489 200.093 41.5216C198.693 42.1944 196.733 43.5399 198.417 43.9884C198.935 44.4016 199.442 44.6077 199.895 44.6879C200.451 44.5805 201.053 44.4922 201.504 44.4368C201.216 44.621 200.623 44.8166 199.895 44.6879C198.951 44.8703 198.138 45.108 198.421 45.3338C198.87 45.6926 200.667 46.2308 201.509 46.455L202.915 47.8005H198.427C195.959 47.8005 196.468 49.146 197.03 49.8187C196.376 49.9682 194.675 50.1775 193.104 49.8187C191.139 49.3702 191.982 50.043 188.617 50.2672C185.925 50.4466 171.287 50.342 166.706 50.2672C167.079 49.9682 167.32 49.3702 165.301 49.3702C162.777 49.3702 162.496 49.3702 159.412 49.8187C156.328 50.2672 57.8782 49.3683 48.3419 49.3683C40.7129 49.3683 50.4078 48.2574 49.0054 48.2574C44.6133 49.0049 29.3997 50.455 22.8921 50.2756C14.7576 50.0513 7.73949 47.8089 7.73888 47.5847C7.73839 47.4053 6.23913 46.1644 5.48956 45.5664C6.23852 45.9402 7.73583 46.4634 7.73339 45.5664C7.73096 44.6695 6.22796 42.0533 5.47676 40.8573L7.71451 38.615Z" fill="#FDA3C4"/>
<path d="M13.0784 51.3968C12.1808 51.3968 12.1459 52.2938 12.2406 52.7423L10.4181 52.9665C9.5319 53.714 7.92776 55.1641 8.60042 54.9847C9.27309 54.8053 10.562 54.312 11.1223 54.0878C11.4955 53.7888 14.0369 53.1908 21.2171 53.1908C30.1925 53.1908 29.3498 52.7423 30.1913 52.7423C31.0327 52.7423 14.2003 51.3968 13.0784 51.3968Z" fill="#FDA3C4"/>
<path d="M71.9285 32.7667C72.1152 32.7674 72.2973 32.7355 72.4748 32.6708C72.6523 32.6062 72.8298 32.5322 73.0073 32.4489C73.2409 32.3378 73.4512 32.2079 73.6383 32.0593C73.8253 31.92 73.989 31.734 74.1296 31.5012C74.2701 31.2777 74.3781 30.9981 74.4536 30.6624C74.5384 30.3268 74.5908 29.9116 74.6106 29.417L74.5972 29.179C74.588 29.1136 74.5835 29.0529 74.5836 28.9969C74.5838 28.9316 74.584 28.8616 74.5841 28.7869C74.5843 28.7216 74.5844 28.6609 74.5846 28.6049C74.5847 28.5396 74.5802 28.4742 74.5711 28.4089C74.5445 27.7928 74.3073 27.4838 73.8593 27.4821C73.7473 27.4817 73.6072 27.5045 73.4391 27.5505C73.1122 27.6519 72.7807 27.7393 72.4445 27.8127C72.1083 27.8767 71.7722 27.9314 71.4361 27.9768C71.296 27.9949 71.2026 28.0366 71.1558 28.1017C71.1183 28.1576 71.0994 28.2462 71.0991 28.3675L71.0236 30.6772L71.0376 30.6773C71.037 30.9199 71.0364 31.1626 71.0358 31.4053C71.0352 31.6479 71.0393 31.8906 71.0481 32.1333C71.0569 32.3387 71.0939 32.4742 71.1591 32.5397C71.2242 32.6147 71.3594 32.6759 71.5646 32.7233C71.6859 32.7518 71.8072 32.7662 71.9285 32.7667ZM71.1876 26.5338C71.3184 26.469 71.4445 26.4135 71.566 26.3673C71.6968 26.3118 71.8276 26.2516 71.9584 26.1868C72.3508 26.0016 72.6734 25.7602 72.9261 25.4625C73.1882 25.1555 73.3711 24.7922 73.4748 24.3726C73.5973 23.8598 73.6919 23.3514 73.7585 22.8477C73.8344 22.3347 73.8729 21.8168 73.8742 21.2941C73.8749 21.0048 73.8616 20.7154 73.8343 20.426C73.807 20.1365 73.7704 19.8424 73.7244 19.5435C73.6875 19.3567 73.6366 19.1792 73.5717 19.011C73.5068 18.8334 73.4232 18.665 73.3209 18.506C73.1628 18.2907 72.9765 18.1313 72.7621 18.0278C72.557 17.915 72.3331 17.8582 72.0905 17.8572C71.8478 17.8563 71.6284 17.9021 71.4321 17.9947C71.3574 18.0318 71.3059 18.0736 71.2778 18.1201C71.2497 18.1573 71.2356 18.2133 71.2354 18.288L71.1342 19.6316C71.1148 19.9488 71.1 20.2614 71.0899 20.5694C71.0892 20.8774 71.0884 21.1901 71.0877 21.5074C71.0859 22.2261 71.0936 22.9401 71.1105 23.6495C71.1275 24.3589 71.1351 25.0776 71.1333 25.8056L71.132 26.3376C71.132 26.3563 71.1366 26.3843 71.1458 26.4217C71.1551 26.4497 71.169 26.4871 71.1876 26.5338ZM70.5252 34.1333C70.2359 34.1322 69.9466 34.1218 69.6573 34.102C69.3774 34.0822 69.0975 34.0391 68.8176 33.9727C68.6031 33.9252 68.4026 33.8591 68.2161 33.7744C68.039 33.6897 67.8572 33.605 67.6707 33.5203C67.4843 33.4263 67.3633 33.2951 67.3077 33.1269C67.2614 32.9681 67.2385 32.7953 67.2389 32.6086C67.2306 32.1886 67.2223 31.7686 67.214 31.3485C67.2056 30.9378 67.2019 30.5225 67.203 30.1025L67.3259 25.5669C67.3272 25.0349 67.3238 24.5029 67.3157 23.9709C67.3077 23.4295 67.295 22.8928 67.2776 22.3607L67.2656 21.5347C67.2672 20.8813 67.2874 20.2281 67.3263 19.5749C67.3652 18.9217 67.3995 18.2685 67.429 17.6153C67.439 17.3727 67.4954 17.1909 67.5984 17.0699C67.7107 16.9397 67.9023 16.8378 68.1731 16.7641C68.4906 16.6814 68.8081 16.6079 69.1256 16.5438C69.4431 16.4797 69.7652 16.4389 70.0919 16.4215L70.666 16.4097C71.2166 16.4119 71.7672 16.456 72.3176 16.5421C73.0267 16.6475 73.6047 16.9204 74.0517 17.3608C74.4986 17.8012 74.8006 18.3764 74.9575 19.0863C75.0314 19.4319 75.0819 19.7774 75.109 20.1229C75.1455 20.459 75.1634 20.7998 75.1626 21.1451C75.1617 21.4998 75.1422 21.859 75.104 22.2229C75.0751 22.5868 75.0369 22.9506 74.9893 23.3144C74.9419 23.6316 74.8898 23.9487 74.833 24.2658C74.7763 24.5736 74.6962 24.8767 74.5928 25.1749C74.5178 25.3426 74.4334 25.5057 74.3397 25.664C74.246 25.8223 74.1476 25.9852 74.0445 26.1528C74.1564 26.1906 74.259 26.219 74.3523 26.238C74.4456 26.257 74.5342 26.2854 74.6181 26.323C74.9537 26.483 75.2239 26.694 75.4286 26.9562C75.6426 27.209 75.7725 27.5222 75.8183 27.8957C75.8733 28.2879 75.9004 28.6847 75.8994 29.086C75.8992 29.17 75.8942 29.3006 75.8845 29.4779C75.8747 29.6552 75.8603 29.8418 75.8411 30.0378C75.8313 30.2337 75.8169 30.4157 75.7978 30.5836C75.7787 30.7609 75.7644 30.8915 75.7549 30.9754C75.7073 31.3299 75.6086 31.6516 75.4585 31.9403C75.3178 32.2291 75.1212 32.4943 74.8686 32.736C74.4197 33.1356 73.9429 33.4605 73.4383 33.7105C72.9337 33.9606 72.378 34.0938 71.7713 34.1101C71.5566 34.1186 71.3466 34.1225 71.1413 34.1217C70.9453 34.1303 70.7399 34.1341 70.5252 34.1333ZM85.5641 34.1773C85.2095 34.1759 84.9906 33.9884 84.9075 33.6147C84.8797 33.5213 84.8659 33.4279 84.8662 33.3346L84.5867 27.2994C84.588 26.7488 84.594 26.2168 84.6045 25.7035C84.6051 25.4888 84.6056 25.2695 84.6061 25.0455C84.616 24.8215 84.6212 24.6069 84.6217 24.4016C84.6315 24.1869 84.6367 23.9909 84.6371 23.8136C84.6375 23.6363 84.6379 23.4823 84.6382 23.3516L84.6391 22.9876C84.6227 22.0262 84.6157 21.0695 84.618 20.1175C84.6203 19.1655 84.6225 18.2369 84.6247 17.3315C84.6253 17.0795 84.6724 16.893 84.7661 16.7721C84.869 16.6418 85.0419 16.5631 85.2846 16.5361C85.49 16.5182 85.6907 16.505 85.8867 16.4964C86.0828 16.4878 86.2834 16.4839 86.4888 16.4847C86.7034 16.4855 86.9227 16.491 87.1467 16.5012C87.3707 16.5114 87.59 16.5263 87.8046 16.5458C88.0472 16.5654 88.2244 16.6407 88.3361 16.7718C88.4478 16.8936 88.5173 17.0759 88.5448 17.3186C88.5539 17.3933 88.5584 17.4774 88.5581 17.5707C88.5579 17.6547 88.5578 17.734 88.5576 17.8087C88.5549 18.9007 88.5523 20.0113 88.5495 21.1407C88.5468 22.2607 88.5488 23.39 88.5554 24.5287L88.5545 24.8787C88.6387 24.8044 88.6902 24.7346 88.709 24.6693C88.7372 24.6041 88.7607 24.5388 88.7795 24.4736C89.1649 23.3457 89.5784 22.176 90.02 20.9643C90.4616 19.7434 90.9312 18.5178 91.4288 17.2877C91.4663 17.2132 91.4992 17.1387 91.5274 17.0641C91.5556 16.9802 91.5931 16.901 91.6399 16.8266C91.7711 16.6404 91.9533 16.5478 92.1866 16.5487C92.2146 16.5488 92.2426 16.5489 92.2706 16.549C92.3079 16.5491 92.3453 16.5586 92.3825 16.5774C92.653 16.6811 92.7878 16.887 92.7871 17.195C92.7868 17.2976 92.7726 17.3909 92.7444 17.4748C92.7162 17.5587 92.6833 17.6472 92.6457 17.7404C92.1199 19.0451 91.6221 20.3405 91.1524 21.6267C90.692 22.9036 90.2596 24.1433 89.8554 25.3457C89.752 25.644 89.644 25.9376 89.5313 26.2265C89.428 26.5061 89.3153 26.7857 89.1933 27.0652C89.1463 27.1863 89.1227 27.2843 89.1226 27.3589C89.1223 27.4523 89.1594 27.5644 89.2338 27.6954C89.7542 28.6307 90.2468 29.4819 90.7116 30.2491C91.1857 31.0256 91.688 31.7555 92.2183 32.4389C92.3393 32.598 92.4883 32.7386 92.6653 32.8606C92.7119 32.8888 92.7538 32.9169 92.7911 32.9451C92.8377 32.9826 92.8843 33.0201 92.9308 33.0576C93.0892 33.1982 93.1681 33.3665 93.1676 33.5625C93.1673 33.6932 93.1297 33.8097 93.0548 33.9121C92.933 34.0983 92.7601 34.191 92.5361 34.1901C92.4614 34.1898 92.3682 34.1661 92.2563 34.119C92.0325 34.0155 91.8322 33.8841 91.6552 33.7247C91.4783 33.5654 91.3107 33.3874 91.1525 33.1908C90.799 32.7134 90.4502 32.2174 90.1061 31.7027C89.762 31.1881 89.4135 30.5801 89.0605 29.8787C89.014 29.7852 88.9583 29.6963 88.8931 29.6121C88.828 29.5185 88.749 29.4062 88.6559 29.2751C88.6463 29.4058 88.6413 29.5271 88.6411 29.6391C88.6408 29.7511 88.6405 29.8631 88.6403 29.9751C88.6397 30.2177 88.6438 30.4464 88.6526 30.6611C88.6707 30.8852 88.6889 31.1046 88.707 31.3193C88.7343 31.6368 88.7568 31.9542 88.7747 32.2716C88.7926 32.589 88.8012 32.9064 88.8004 33.2237L88.7999 33.4477C88.7806 33.6996 88.7148 33.8814 88.6026 33.993C88.4996 34.1139 88.3268 34.1786 88.0841 34.187C87.9068 34.1956 87.7294 34.1996 87.5521 34.1989C87.3747 34.1982 87.1974 34.1975 87.0201 34.1969L85.5641 34.1773ZM100.203 32.8756C100.408 32.8764 100.59 32.7371 100.75 32.4577C100.815 32.3367 100.867 32.2155 100.904 32.0943C100.951 31.9825 100.998 31.8614 101.045 31.7309C101.384 30.6868 101.634 29.6331 101.795 28.5697C101.965 27.5064 102.071 26.4195 102.111 25.3089L102.111 25.2109C102.114 24.0443 102.009 22.9239 101.797 21.8497C101.594 20.7663 101.317 19.6872 100.965 18.6125C100.946 18.5657 100.928 18.5237 100.909 18.4863C100.891 18.4489 100.872 18.4068 100.854 18.3601C100.695 18.1074 100.486 17.9806 100.224 17.9796C100.122 17.9792 100.014 18.0068 99.9022 18.0624C99.7995 18.1087 99.7106 18.183 99.6357 18.2854C99.4765 18.4994 99.3546 18.723 99.2701 18.956C99.1855 19.189 99.1103 19.4267 99.0444 19.6691C98.8465 20.4617 98.7092 21.2591 98.6326 22.0615C98.556 22.8546 98.4934 23.6617 98.4448 24.4828C98.4256 24.6694 98.4159 24.856 98.4154 25.0427C98.415 25.2294 98.4145 25.416 98.4141 25.6027C98.4115 26.676 98.4837 27.7077 98.6306 28.6976C98.7776 29.6875 98.9898 30.673 99.2675 31.654C99.3138 31.8129 99.3647 31.9624 99.4204 32.1026C99.476 32.2522 99.555 32.3925 99.6574 32.5235C99.8342 32.7576 100.016 32.8749 100.203 32.8756ZM97.7213 34.2241C97.5066 34.2233 97.3154 34.1712 97.1477 34.0679C96.9892 33.9739 96.8355 33.8567 96.6865 33.7161C96.4444 33.4818 96.2537 33.2244 96.1144 32.9439C95.9844 32.6634 95.8731 32.369 95.7805 32.0606C95.4751 30.9954 95.2443 29.9305 95.0882 28.8659C94.9414 27.792 94.8695 26.6811 94.8722 25.5331C94.8733 25.0851 94.8884 24.6278 94.9175 24.1612C94.9662 23.3307 95.0382 22.5143 95.1334 21.712C95.2287 20.9004 95.3753 20.0936 95.5733 19.2917C95.7899 18.4619 96.165 17.74 96.6985 17.126C96.8108 16.9865 96.9324 16.8749 97.0633 16.7914C97.1942 16.7079 97.3529 16.6572 97.5397 16.6393C97.7917 16.6216 98.0437 16.6039 98.2958 16.5862C98.5478 16.5685 98.8045 16.5602 99.0658 16.5612C99.3645 16.5623 99.6585 16.5821 99.9477 16.6206C100.237 16.6497 100.526 16.7068 100.815 16.7919C101.179 16.896 101.473 17.0698 101.696 17.3133C101.919 17.5568 102.087 17.8561 102.198 18.2112C102.457 19.0336 102.684 19.8605 102.878 20.6919C103.081 21.514 103.224 22.3592 103.306 23.2275C103.333 23.5076 103.356 23.7877 103.374 24.0678C103.401 24.3386 103.414 24.6093 103.414 24.88L103.413 25.188C103.363 26.4104 103.249 27.6 103.068 28.7567C102.898 29.904 102.629 31.037 102.262 32.1556C102.215 32.3141 102.164 32.4632 102.107 32.603C102.051 32.7521 101.985 32.8965 101.91 33.0362C101.601 33.6884 101.077 34.0644 100.339 34.1642C100.106 34.2006 99.8726 34.223 99.6393 34.2315C99.4153 34.24 99.1866 34.2437 98.9532 34.2428L97.7213 34.2241ZM109.548 26.6816C109.604 26.6818 109.665 26.6774 109.73 26.6683C109.805 26.6593 109.889 26.6456 109.982 26.6273C110.01 26.6274 110.038 26.6228 110.066 26.6136C110.094 26.6044 110.118 26.5951 110.136 26.5859C110.641 26.4665 111.014 26.2439 111.258 25.9182C111.511 25.5925 111.67 25.1918 111.737 24.716C111.784 24.4455 111.817 24.189 111.837 23.9464C111.865 23.6945 111.889 23.5033 111.908 23.3727C111.917 23.326 111.922 23.2794 111.922 23.2327C111.922 23.1861 111.923 23.1394 111.923 23.0927C111.923 22.9994 111.918 22.9154 111.909 22.8407C111.91 22.7567 111.91 22.682 111.91 22.6167C111.866 21.5618 111.682 20.5391 111.357 19.5485C111.228 19.156 111.032 18.8426 110.772 18.6083C110.511 18.3646 110.199 18.1721 109.835 18.0307C109.76 18.0117 109.686 17.9974 109.611 17.9878C109.536 17.9688 109.462 17.9499 109.387 17.9309L109.275 17.9165C109.117 17.9159 109.037 18.0042 109.037 18.1816L109.049 18.7836C109.066 19.4277 109.079 20.0578 109.087 20.6738C109.104 21.2805 109.121 21.8266 109.139 22.312C109.137 22.76 109.136 23.306 109.135 23.95C109.133 24.5847 109.136 25.2427 109.144 25.924C109.143 26.2134 109.166 26.4141 109.212 26.5263C109.259 26.6292 109.371 26.6809 109.548 26.6816ZM106.352 34.2853C106.305 34.2852 106.254 34.2803 106.198 34.2707C106.151 34.2706 106.104 34.2657 106.058 34.2562C105.545 34.1702 105.284 33.8659 105.276 33.3432C105.249 32.7458 105.232 32.125 105.224 31.481C105.217 30.8463 105.209 30.2069 105.201 29.5629C105.203 28.9189 105.204 28.2795 105.206 27.6449C105.207 27.0009 105.209 26.3849 105.21 25.7969L105.215 23.7949C105.216 23.3189 105.213 22.8522 105.204 22.3948C105.205 21.9282 105.197 21.4615 105.18 20.9947C105.162 20.4813 105.15 19.968 105.141 19.4546C105.143 18.9413 105.135 18.4279 105.117 17.9145L105.118 17.6905C105.128 17.2985 105.203 17.0281 105.344 16.8793C105.493 16.7213 105.764 16.629 106.156 16.6025L106.688 16.5905L107.724 16.6085L108.844 16.6128L109.404 16.643C110.197 16.7394 110.864 16.9939 111.404 17.4067C111.954 17.8195 112.354 18.4184 112.604 19.2033C112.965 20.3341 113.173 21.4829 113.226 22.6497L113.225 22.7757C113.225 22.8504 113.225 22.9624 113.225 23.1117C113.224 23.2517 113.215 23.443 113.195 23.6856C113.176 23.8722 113.148 24.0961 113.11 24.3573C113.072 24.6185 113.029 24.8843 112.982 25.1548C112.916 25.4999 112.798 25.8401 112.629 26.1755C112.47 26.5015 112.25 26.7947 111.969 27.0549C111.698 27.3152 111.366 27.5286 110.974 27.6951C110.581 27.8523 110.128 27.9345 109.615 27.9419C109.428 27.9412 109.312 27.9547 109.265 27.9825C109.218 28.0103 109.195 28.0943 109.194 28.2343L109.192 29.3403C109.191 29.6669 109.185 29.9982 109.175 30.3342C109.174 30.6702 109.174 31.0062 109.173 31.3422C109.172 31.4915 109.172 31.6409 109.172 31.7902C109.171 31.9395 109.176 32.0889 109.185 32.2382L109.238 33.4985C109.237 33.8625 109.05 34.0904 108.676 34.1823C108.601 34.2007 108.527 34.2097 108.452 34.2094C108.387 34.2185 108.317 34.2276 108.242 34.2366C107.943 34.2541 107.644 34.2623 107.346 34.2612C107.047 34.2694 106.748 34.2775 106.45 34.2857L106.352 34.2853ZM118.604 34.3325C118.427 34.3319 118.25 34.3312 118.072 34.3305C117.904 34.3298 117.727 34.3198 117.54 34.3004C117.316 34.2809 117.111 34.2055 116.925 34.0741C116.739 33.952 116.566 33.8114 116.408 33.6521C115.998 33.1932 115.682 32.7019 115.46 32.1784C115.237 31.6549 115.079 31.0989 114.988 30.5106C114.969 30.3425 114.951 30.1744 114.933 30.0064C114.924 29.8383 114.92 29.6703 114.92 29.5023C114.921 29.1757 114.936 28.8537 114.964 28.5365C115.002 28.21 115.045 27.8835 115.093 27.557C115.168 27.1559 115.374 26.9561 115.71 26.9573L115.766 26.9576C115.943 26.9676 116.088 27.0335 116.2 27.1552C116.311 27.277 116.367 27.4359 116.366 27.6319L116.366 27.7439C116.366 27.8745 116.356 28.0052 116.337 28.1358C116.328 28.2664 116.313 28.397 116.294 28.5276C116.275 28.6862 116.256 28.8401 116.237 28.9894C116.228 29.1387 116.222 29.2927 116.222 29.4513C116.22 30.3753 116.442 31.2582 116.888 32.0999C117.046 32.3992 117.264 32.6287 117.544 32.7885C117.824 32.9482 118.113 33.0286 118.411 33.0298C118.598 33.0305 118.78 33.0032 118.958 32.9479C119.135 32.8926 119.303 32.7999 119.462 32.6698C119.565 32.5862 119.649 32.4839 119.715 32.3628C119.781 32.2511 119.837 32.1346 119.884 32.0135C119.969 31.7711 120.03 31.5334 120.068 31.3002C120.106 31.067 120.125 30.829 120.125 30.5864C120.126 30.2877 120.099 29.9936 120.044 29.7041C119.998 29.4145 119.933 29.1203 119.85 28.8213C119.831 28.7559 119.803 28.6998 119.766 28.653C119.729 28.5968 119.692 28.5407 119.654 28.4846C119.552 28.3162 119.436 28.2317 119.305 28.2312C119.23 28.2309 119.146 28.2586 119.053 28.3142C119.015 28.3421 118.973 28.3653 118.927 28.3837C118.889 28.3929 118.847 28.4068 118.801 28.4253C118.707 28.4436 118.637 28.4526 118.591 28.4525C118.348 28.4515 118.171 28.3575 118.059 28.1704C117.985 28.0488 117.948 27.9273 117.948 27.806C117.948 27.6473 118.01 27.4935 118.131 27.3447C118.197 27.2796 118.271 27.2192 118.356 27.1635C118.655 26.9594 118.898 26.7176 119.085 26.4383C119.273 26.1591 119.423 25.8516 119.536 25.5161C119.62 25.2737 119.691 24.9567 119.748 24.5649C119.814 24.1731 119.852 23.786 119.863 23.4033L119.88 22.1854C119.88 21.8774 119.876 21.5694 119.868 21.2613C119.859 20.944 119.841 20.6266 119.814 20.3091C119.796 20.029 119.755 19.7536 119.69 19.4826C119.635 19.2118 119.565 18.9408 119.482 18.6698C119.343 18.2493 119.129 18.0385 118.84 18.0373C118.7 18.0368 118.527 18.0781 118.321 18.1614C117.901 18.3464 117.555 18.6204 117.283 18.9834C116.974 19.4022 116.735 19.8446 116.566 20.3106C116.397 20.7766 116.284 21.2662 116.227 21.7793L116.212 22.0172C116.212 22.1479 116.221 22.2833 116.239 22.4234C116.267 22.5635 116.299 22.6989 116.336 22.8297C116.364 22.9138 116.378 22.9979 116.377 23.0819C116.377 23.3619 116.241 23.548 115.97 23.6403C115.895 23.668 115.821 23.6818 115.746 23.6815C115.466 23.6804 115.261 23.5396 115.131 23.2591C114.983 22.8945 114.909 22.5069 114.91 22.0962C114.91 22.0309 114.91 21.9702 114.91 21.9142C114.91 21.8489 114.915 21.7836 114.925 21.7183C114.982 21.1398 115.1 20.585 115.279 20.0536C115.457 19.5223 115.706 19.0099 116.024 18.5165C116.38 17.9579 116.806 17.5208 117.302 17.2054C117.797 16.8807 118.381 16.7009 119.053 16.6662L120.089 16.6702L121.125 16.6881C121.573 16.7085 121.937 16.8313 122.216 17.0563C122.495 17.2721 122.719 17.5716 122.886 17.9549C123.155 18.5813 123.317 19.2306 123.371 19.9028C123.408 20.239 123.435 20.5751 123.453 20.9111C123.48 21.2379 123.493 21.5413 123.493 21.8213L123.492 22.1153C123.471 22.8152 123.447 23.4545 123.417 24.033C123.397 24.6116 123.317 25.1246 123.175 25.5721C123.1 25.8051 123.02 26.0335 122.936 26.2572C122.861 26.4809 122.757 26.6952 122.626 26.9C122.607 26.9466 122.589 26.9885 122.57 27.0258C122.551 27.0537 122.542 27.0863 122.542 27.1237C122.542 27.1797 122.569 27.2358 122.625 27.292C122.867 27.5356 123.058 27.7883 123.198 28.0502C123.346 28.3121 123.458 28.5879 123.532 28.8775C123.605 29.1671 123.651 29.4613 123.669 29.76C123.687 30.0588 123.696 30.3621 123.695 30.6701L123.694 31.0061C123.693 31.7341 123.495 32.4334 123.101 33.1039C122.783 33.644 122.311 33.9922 121.685 34.1484C121.33 34.2404 120.98 34.295 120.634 34.3124C120.298 34.3297 119.953 34.3377 119.598 34.3364L118.604 34.3325ZM130.799 34.3655C130.584 34.3554 130.421 34.2941 130.309 34.1816C130.197 34.0785 130.142 33.9337 130.142 33.747L130.171 33.5371C130.208 33.3786 130.227 33.22 130.228 33.0613C130.237 32.9027 130.252 32.7441 130.271 32.5855C130.29 32.3896 130.305 32.1096 130.315 31.7456C130.334 31.3817 130.349 30.9804 130.36 30.5418C130.38 30.1125 130.39 29.6693 130.391 29.2119C130.402 28.7453 130.407 28.316 130.408 27.924C130.418 27.5227 130.424 27.1774 130.425 26.888C130.435 26.5987 130.44 26.4121 130.44 26.3281C130.441 25.8988 130.437 25.4461 130.429 24.97C130.421 24.4847 130.418 23.99 130.419 23.486L130.42 23.122C130.42 23.066 130.401 23.0333 130.364 23.0238C130.317 23.0609 130.284 23.1075 130.266 23.1634C130.256 23.21 130.242 23.2613 130.223 23.3172C130.035 23.9978 129.847 24.6785 129.658 25.3591C129.47 26.0397 129.272 26.7203 129.065 27.4008C128.793 28.3051 128.538 29.2048 128.303 30.0999C128.067 30.995 127.776 31.8432 127.429 32.6445C127.335 32.8588 127.246 33.0685 127.161 33.2735C127.077 33.4785 126.983 33.6788 126.88 33.8744C126.73 34.1818 126.51 34.335 126.221 34.3339L126.011 34.3051C125.61 34.2195 125.396 33.948 125.369 33.4906C125.369 33.4346 125.369 33.3786 125.369 33.3226C125.379 33.2666 125.388 33.2107 125.398 33.1547C125.456 32.1096 125.524 31.0458 125.601 29.9635C125.688 28.8718 125.775 27.7708 125.861 26.6605C125.938 25.6714 125.992 24.6916 126.022 23.7211C126.053 22.7412 126.069 21.7566 126.071 20.7672C126.072 20.3846 126.073 20.0066 126.074 19.6332C126.075 19.2599 126.071 18.9005 126.063 18.5552L126.052 17.3231C126.061 17.1365 126.118 16.992 126.221 16.8898C126.333 16.7782 126.473 16.7134 126.641 16.6954L126.669 16.6955C126.828 16.6961 126.963 16.7433 127.075 16.8371C127.187 16.9308 127.261 17.0665 127.298 17.2439C127.316 17.3373 127.325 17.4307 127.325 17.524C127.325 17.6174 127.329 17.7107 127.339 17.8041C127.357 18.0468 127.365 18.3082 127.365 18.5882C127.373 18.8589 127.377 19.1342 127.377 19.4142L127.357 21.9342C127.354 23.0075 127.319 24.0714 127.251 25.1258C127.183 26.1802 127.11 27.2393 127.033 28.303C127.014 28.4336 127 28.5689 126.99 28.7088C126.981 28.8394 126.976 28.9748 126.975 29.1148C126.975 29.1988 126.98 29.2874 126.989 29.3808C126.998 29.4649 127.012 29.5536 127.03 29.647C127.058 29.5724 127.086 29.5025 127.114 29.4373C127.143 29.3721 127.166 29.3022 127.185 29.2276C127.345 28.6868 127.5 28.1508 127.651 27.6194C127.811 27.088 127.966 26.5519 128.117 26.0111C128.522 24.566 128.922 23.1349 129.317 21.7177C129.722 20.2913 130.033 18.8505 130.252 17.3953C130.28 17.1808 130.346 17.0223 130.449 16.9201C130.561 16.8178 130.734 16.7578 130.967 16.7401C131.238 16.7224 131.504 16.7095 131.765 16.7011C132.027 16.6928 132.293 16.6892 132.563 16.6902C132.955 16.6917 133.338 16.7072 133.711 16.7366C133.935 16.7562 134.108 16.8315 134.229 16.9626C134.359 17.0938 134.424 17.2667 134.423 17.4814L134.423 17.8034C134.422 18.0367 134.426 18.2701 134.435 18.5034C134.444 18.7275 134.448 18.9562 134.447 19.1895L134.447 19.4695C134.427 19.8894 134.416 20.3234 134.415 20.7714C134.414 21.2194 134.413 21.672 134.412 22.1294C134.411 22.6334 134.41 23.1327 134.409 23.6274C134.417 24.1127 134.429 24.6075 134.447 25.1115L134.459 25.7696L134.459 25.9936C134.458 26.1522 134.453 26.3716 134.443 26.6515C134.443 26.9222 134.437 27.2255 134.427 27.5615C134.417 27.8974 134.407 28.2567 134.396 28.6393C134.386 29.0126 134.376 29.3813 134.366 29.7452C134.365 30.0999 134.359 30.4359 134.349 30.7532C134.339 31.0798 134.334 31.3551 134.333 31.5791C134.333 31.8685 134.318 32.1531 134.289 32.433C134.261 32.7222 134.237 33.0114 134.217 33.3007C134.217 33.4687 134.188 33.6366 134.132 33.8044C134.028 34.1586 133.795 34.3351 133.431 34.3337C132.992 34.3413 132.553 34.349 132.115 34.3566C131.685 34.3643 131.247 34.3673 130.799 34.3655ZM136.889 34.375C136.507 34.3735 136.288 34.1627 136.233 33.7425C136.215 33.5837 136.201 33.4203 136.192 33.2523C136.192 33.0843 136.188 32.9163 136.179 32.7482L135.915 26.0132C135.897 25.7984 135.884 25.5884 135.875 25.383C135.866 25.1683 135.862 24.963 135.862 24.767C135.863 24.459 135.869 24.1603 135.879 23.871C135.889 23.5817 135.899 23.2924 135.909 23.0031C135.92 22.3032 135.926 21.6032 135.928 20.9032C135.939 20.2032 135.954 19.5033 135.975 18.8034C135.985 18.6074 135.999 18.4161 136.018 18.2295C136.037 18.0336 136.056 17.8377 136.076 17.6417C136.123 17.2779 136.217 17.031 136.357 16.9008C136.507 16.7707 136.764 16.7017 137.128 16.6938L139.144 16.7016C139.676 16.7223 139.941 16.9333 139.94 17.3346C139.94 17.456 139.921 17.5726 139.883 17.6844C139.808 17.8988 139.766 18.1133 139.756 18.3279C139.746 18.5332 139.741 18.7432 139.74 18.9579C139.72 19.7511 139.699 20.5351 139.679 21.3097C139.658 22.0749 139.647 22.8075 139.645 23.5075C139.643 24.3942 139.655 25.2856 139.681 26.1817C139.69 26.4804 139.712 26.6812 139.75 26.784C139.796 26.8868 139.913 26.9386 140.099 26.9393C140.155 26.9395 140.216 26.9398 140.281 26.94C140.356 26.931 140.44 26.922 140.533 26.913C140.729 26.8951 140.925 26.8818 141.121 26.8732C141.317 26.8647 141.513 26.8608 141.709 26.8615C141.784 26.8618 141.849 26.8621 141.905 26.8623C141.971 26.8625 142.036 26.8581 142.101 26.849C142.269 26.8217 142.4 26.7988 142.494 26.7805C142.596 26.7529 142.676 26.7159 142.732 26.6694C142.788 26.6137 142.821 26.5485 142.83 26.4738C142.849 26.3899 142.859 26.2779 142.859 26.1379L142.848 25.1299C142.849 24.6352 142.859 24.1546 142.879 23.688C142.899 23.2121 142.923 22.7688 142.952 22.3583C142.981 21.9664 142.996 21.5744 142.997 21.1824C143.007 20.7811 143.013 20.3798 143.014 19.9785L143.018 18.1025C143.019 18.0278 143.01 17.9531 142.991 17.8784C142.982 17.8037 142.973 17.729 142.964 17.6543L142.95 17.5002C142.95 17.3696 142.979 17.239 143.035 17.1086C143.166 16.8291 143.372 16.6899 143.652 16.6909L143.694 16.6911C144.011 16.711 144.207 16.8797 144.281 17.1974C144.299 17.3001 144.308 17.4028 144.308 17.5055C144.317 17.6082 144.321 17.7108 144.321 17.8135C144.318 18.9988 144.302 20.1701 144.271 21.3273C144.249 22.4753 144.209 23.5951 144.151 24.6869L144.135 25.3868C144.134 25.7228 144.147 26.0496 144.175 26.367C144.184 26.4417 144.188 26.5117 144.188 26.5771C144.188 26.6424 144.206 26.7031 144.244 26.7593C144.346 26.937 144.397 27.1099 144.396 27.2779C144.396 27.4179 144.358 27.5577 144.283 27.6974C144.246 27.7626 144.227 27.8419 144.227 27.9352C144.227 28.0005 144.231 28.0659 144.24 28.1313C144.25 28.1873 144.259 28.248 144.268 28.3134L144.83 33.4116C144.839 33.4676 144.843 33.5236 144.843 33.5796C144.852 33.6357 144.857 33.6917 144.857 33.7477C144.838 33.9343 144.777 34.088 144.674 34.209C144.58 34.33 144.454 34.3995 144.295 34.4175L144.211 34.4172C144.053 34.4166 143.913 34.3694 143.792 34.2756C143.68 34.1818 143.61 34.0415 143.583 33.8548C143.537 33.5746 143.495 33.2898 143.459 33.0003C143.422 32.7201 143.39 32.4354 143.363 32.1459C143.29 31.4456 143.226 30.806 143.171 30.2272C143.117 29.6483 143.057 29.0461 142.994 28.4205C142.975 28.2711 142.952 28.173 142.924 28.1262C142.906 28.0795 142.859 28.0559 142.785 28.0557L142.504 28.0826C142.112 28.1184 141.72 28.1449 141.328 28.1621C140.946 28.1792 140.558 28.1964 140.166 28.2136C139.998 28.2223 139.891 28.2405 139.844 28.2683C139.797 28.2868 139.774 28.3614 139.773 28.4921L139.972 33.0429L139.971 33.7149C139.923 34.1627 139.699 34.3858 139.297 34.3843C139.12 34.3929 138.947 34.3969 138.779 34.3963C138.611 34.3956 138.443 34.395 138.275 34.3943L136.889 34.375ZM154.342 17.0401C154.38 17.0589 154.408 17.0824 154.426 17.1104C154.557 17.2603 154.621 17.4985 154.621 17.8252L154.605 18.4131C154.604 18.7398 154.608 19.0618 154.617 19.3792C154.635 19.6966 154.653 20.0187 154.671 20.3454C154.67 20.4107 154.675 20.5228 154.684 20.6815C154.683 20.8121 154.683 20.9988 154.682 21.2415C154.691 21.4748 154.695 21.7782 154.694 22.1515C154.693 22.5248 154.687 22.9822 154.677 23.5234C154.676 24.0554 154.669 24.6854 154.658 25.4134C154.647 26.1414 154.631 26.9813 154.61 27.9332C154.599 28.8758 154.582 29.9445 154.561 31.139C154.55 31.447 154.526 31.7503 154.488 32.0488C154.45 32.3566 154.394 32.6597 154.318 32.9581C154.271 33.1353 154.201 33.289 154.107 33.4193C154.023 33.5497 153.915 33.6706 153.784 33.7821C153.522 33.9957 153.247 34.1627 152.957 34.2829C152.667 34.4124 152.354 34.4766 152.018 34.4753L151.878 34.4747C151.598 34.4643 151.319 34.4539 151.039 34.4435C150.768 34.4425 150.493 34.4321 150.213 34.4123C149.933 34.3926 149.653 34.3588 149.373 34.3111C149.102 34.2634 148.832 34.1877 148.561 34.084C147.974 33.8577 147.489 33.5478 147.108 33.1543C146.735 32.7702 146.498 32.256 146.397 31.6116C146.351 31.3408 146.315 31.0746 146.287 30.8132C146.269 30.5518 146.261 30.2904 146.261 30.0291C146.262 29.8704 146.267 29.7164 146.276 29.5671C146.286 29.4178 146.305 29.2639 146.333 29.1053C146.371 28.8908 146.395 28.6809 146.405 28.4756C146.424 28.261 146.443 28.0464 146.462 27.8318C146.472 27.7759 146.477 27.7199 146.477 27.6639C146.477 27.5986 146.486 27.5426 146.505 27.496C146.552 27.3188 146.632 27.1791 146.744 27.0769C146.857 26.9747 146.992 26.9239 147.151 26.9245L147.221 26.9247C147.379 26.944 147.51 27.0145 147.612 27.1363C147.724 27.2487 147.78 27.3982 147.779 27.5849L147.779 27.6409C147.76 27.8742 147.74 28.1074 147.721 28.3407C147.702 28.5646 147.673 28.7932 147.636 29.0264C147.616 29.2036 147.597 29.3809 147.578 29.5581C147.569 29.7261 147.563 29.8988 147.563 30.0761C147.562 30.3094 147.571 30.5428 147.589 30.7762C147.617 31.0096 147.654 31.2431 147.7 31.4766C147.81 32.0184 148.094 32.4115 148.551 32.6559C148.691 32.7311 148.831 32.7923 148.97 32.8395C149.12 32.8961 149.273 32.9434 149.432 32.9813C149.544 33.0097 149.651 33.0241 149.754 33.0245C150.006 33.0255 150.211 32.947 150.371 32.7889C150.539 32.6402 150.647 32.4306 150.694 32.1602C150.722 31.9923 150.746 31.8244 150.765 31.6564C150.784 31.4885 150.799 31.3206 150.808 31.1526C150.811 30.0513 150.818 28.936 150.831 27.8067C150.832 27.3307 150.833 26.8267 150.834 26.2947C150.835 25.7627 150.841 25.226 150.852 24.6847L150.853 24.4467C150.647 24.4646 150.447 24.4778 150.251 24.4864C150.017 24.4948 149.779 24.4986 149.537 24.4977C149.285 24.4967 149.033 24.491 148.781 24.4807C148.529 24.4704 148.281 24.4555 148.039 24.4359C147.572 24.4061 147.199 24.3253 146.919 24.1936C146.649 24.0619 146.449 23.9071 146.318 23.7292C146.207 23.5701 146.128 23.4158 146.081 23.2663C146.045 23.1075 146.017 22.9487 145.999 22.79L145.765 21.0251C145.746 20.9504 145.737 20.8337 145.738 20.675C145.738 20.5163 145.738 20.3577 145.739 20.199C145.739 20.0683 145.739 19.9563 145.74 19.863C145.74 19.7603 145.745 19.695 145.754 19.667C145.793 19.1819 145.84 18.7434 145.897 18.3516C145.964 17.9505 146.039 17.5588 146.124 17.1765C146.162 17.0459 146.246 16.9576 146.377 16.9114C146.508 16.8559 146.727 16.8241 147.035 16.816C147.278 16.8076 147.52 16.8038 147.763 16.8048C148.015 16.7964 148.262 16.7927 148.505 16.7936L149.037 16.7957C149.364 16.8156 149.588 16.8491 149.709 16.8963C149.839 16.9434 149.905 17.0277 149.904 17.149L149.89 17.247C149.852 17.4335 149.814 17.62 149.777 17.8065C149.739 17.9931 149.706 18.1843 149.677 18.3802C149.639 18.6227 149.606 18.8652 149.577 19.1078C149.549 19.341 149.52 19.5836 149.492 19.8354L149.492 19.9334C149.491 19.9988 149.491 20.0828 149.491 20.1854C149.5 20.2881 149.504 20.3908 149.504 20.4935C149.513 20.5962 149.518 20.6942 149.517 20.7876C149.527 20.8809 149.536 20.9556 149.545 21.0117C149.591 21.3198 149.632 21.628 149.669 21.9361C149.705 22.2443 149.747 22.5524 149.792 22.8606C149.811 22.954 149.829 23.0428 149.848 23.1268C149.876 23.2109 149.903 23.2951 149.931 23.3792C149.94 23.4072 149.954 23.4399 149.973 23.4773C149.992 23.5054 150.01 23.5335 150.029 23.5615C150.085 23.6364 150.159 23.702 150.252 23.7584C150.355 23.8055 150.49 23.8387 150.658 23.858L150.854 23.8587L150.86 21.5627C150.861 20.8347 150.863 20.1954 150.864 19.6447C150.866 19.0847 150.862 18.6741 150.853 18.4127L150.854 18.0207C150.854 17.946 150.854 17.8807 150.855 17.8247C150.855 17.7594 150.86 17.694 150.869 17.6287C150.926 17.0783 151.216 16.7994 151.739 16.7921L152.439 16.7808C152.859 16.7824 153.279 16.798 153.699 16.8276L153.811 16.8281C154.11 16.8479 154.287 16.9186 154.342 17.0401Z" fill="white"/>
</g>
<defs>
<filter id="filter0_d_5_3746" x="0.0317383" y="0" width="223.889" height="58.9999" filterUnits="userSpaceOnUse" color-interpolation-filters="sRGB">
<feFlood flood-opacity="0" result="BackgroundImageFix"/>
<feColorMatrix in="SourceAlpha" type="matrix" values="0 0 0 0 0 0 0 0 0 0 0 0 0 0 0 0 0 0 127 0" result="hardAlpha"/>
<feOffset dy="2"/>
<feGaussianBlur stdDeviation="1"/>
<feColorMatrix type="matrix" values="0 0 0 0 0.992157 0 0 0 0 0.639216 0 0 0 0 0.768627 0 0 0 0.24 0"/>
<feBlend mode="normal" in2="BackgroundImageFix" result="effect1_dropShadow_5_3746"/>
<feBlend mode="normal" in="SourceGraphic" in2="effect1_dropShadow_5_3746" result="shape"/>
</filter>
</defs>
</svg>
