<svg width="226" height="61" viewBox="0 0 226 61" fill="none" xmlns="http://www.w3.org/2000/svg">
<g filter="url(#filter0_d_5_3749)">
<path d="M8.71469 39.615L5.05371 34.2331L3.0318 12.7056C4.79991 9.64093 10.9722 3.33217 21.5166 2.61458C34.6972 1.7176 40.7941 0.810288 55.9411 1.03453C71.0881 1.25878 163.929 1.48496 169.259 1.48496C174.588 1.48496 200.986 0.812408 208.008 4.1759C213.625 6.86669 218.781 12.0244 220.657 14.2669C220.097 14.7154 219.316 16.1056 220.667 18.079C222.019 20.0523 222.738 23.0871 222.928 24.3578C222.182 25.1053 220.691 26.7797 220.693 27.4972C220.695 28.3942 215.647 28.6185 218.175 29.7397C220.197 30.6367 220.709 33.2529 220.712 34.4488C218.751 35.5701 213.933 37.8574 210.344 38.0368C206.754 38.2162 203.614 39.0085 202.493 39.3822L202.498 41.1763C204.182 41.4753 207.213 42.1629 205.868 42.5216C204.186 42.9701 202.5 41.8489 201.1 42.5216C199.699 43.1944 197.739 44.5399 199.423 44.9884C199.941 45.4016 200.448 45.6077 200.902 45.6879C201.458 45.5805 202.06 45.4922 202.51 45.4368C202.222 45.621 201.63 45.8166 200.902 45.6879C199.957 45.8703 199.144 46.108 199.427 46.3338C199.877 46.6926 201.673 47.2308 202.515 47.455L203.922 48.8005H199.434C196.965 48.8005 197.474 50.146 198.037 50.8187C197.383 50.9682 195.682 51.1775 194.11 50.8187C192.145 50.3702 192.989 51.043 189.623 51.2672C186.931 51.4466 172.293 51.342 167.711 51.2672C168.084 50.9682 168.326 50.3702 166.306 50.3702C163.782 50.3702 163.501 50.3702 160.417 50.8187C157.333 51.2672 58.88 50.3683 49.3434 50.3683C41.7141 50.3683 51.4094 49.2574 50.0069 49.2574C45.6146 50.0049 30.4006 51.455 23.8928 51.2756C15.758 51.0513 8.73967 48.8089 8.73906 48.5847C8.73857 48.4053 7.23926 47.1644 6.48967 46.5664C7.23865 46.9402 8.73601 47.4634 8.73357 46.5664C8.73114 45.6695 7.22809 43.0533 6.47687 41.8573L8.71469 39.615Z" fill="white"/>
<path d="M14.0787 52.3968C13.1811 52.3968 13.1462 53.2938 13.2409 53.7423L11.4183 53.9665C10.5321 54.714 8.92794 56.1641 9.60063 55.9847C10.2733 55.8053 11.5622 55.312 12.1226 55.0878C12.4958 54.7888 15.0372 54.1908 22.2177 54.1908C31.1934 54.1908 30.3507 53.7423 31.1922 53.7423C32.0336 53.7423 15.2007 52.3968 14.0787 52.3968Z" fill="white"/>
<path d="M9.59576 54.1908L11.4183 53.9665M11.4183 53.9665L13.2409 53.7423C13.1462 53.2938 13.1811 52.3968 14.0787 52.3968C15.2007 52.3968 32.0336 53.7423 31.1922 53.7423C30.3507 53.7423 31.1934 54.1908 22.2177 54.1908C15.0372 54.1908 12.4958 54.7888 12.1226 55.0878C11.5622 55.312 10.2733 55.8053 9.60063 55.9847C8.92794 56.1641 10.5321 54.714 11.4183 53.9665ZM8.71469 39.615L5.05371 34.2331L3.0318 12.7056C4.79991 9.64093 10.9722 3.33217 21.5166 2.61458C34.6972 1.7176 40.7941 0.810288 55.9411 1.03453C71.0881 1.25878 163.929 1.48496 169.259 1.48496C174.588 1.48496 200.986 0.812408 208.008 4.1759C213.625 6.86669 218.781 12.0244 220.657 14.2669C220.097 14.7154 219.316 16.1056 220.667 18.079C222.019 20.0523 222.738 23.0871 222.928 24.3578C222.182 25.1053 220.691 26.7797 220.693 27.4972C220.695 28.3942 215.647 28.6185 218.175 29.7397C220.197 30.6367 220.709 33.2529 220.712 34.4488C218.751 35.5701 213.933 37.8574 210.344 38.0368C206.754 38.2162 203.614 39.0085 202.493 39.3822L202.498 41.1763C204.182 41.4753 207.213 42.1629 205.868 42.5216C204.186 42.9701 202.5 41.8489 201.1 42.5216C199.699 43.1944 197.739 44.5399 199.423 44.9884C200.773 46.0647 202.043 45.7358 202.51 45.4368C201.295 45.5863 198.977 45.975 199.427 46.3338C199.877 46.6926 201.673 47.2308 202.515 47.455L203.922 48.8005C203.454 48.8005 201.902 48.8005 199.434 48.8005C196.965 48.8005 197.474 50.146 198.037 50.8187C197.383 50.9682 195.682 51.1775 194.11 50.8187C192.145 50.3702 192.989 51.043 189.623 51.2672C186.931 51.4466 172.293 51.342 167.711 51.2672C168.084 50.9682 168.326 50.3702 166.306 50.3702C163.782 50.3702 163.501 50.3702 160.417 50.8187C157.333 51.2672 58.88 50.3683 49.3434 50.3683C41.7141 50.3683 51.4094 49.2574 50.0069 49.2574C45.6146 50.0049 30.4006 51.455 23.8928 51.2756C15.758 51.0513 8.73967 48.8089 8.73906 48.5847C8.73857 48.4053 7.23926 47.1644 6.48967 46.5664C7.23865 46.9402 8.73601 47.4634 8.73357 46.5664C8.73114 45.6695 7.22809 43.0533 6.47687 41.8573L8.71469 39.615Z" stroke="#FDA3C4"/>
<path d="M51.6532 33.8438C52.3255 33.7064 52.886 33.5313 53.3345 33.3183C53.783 33.1147 54.0776 32.8498 54.2184 32.5237C54.2841 32.384 54.3264 32.2395 54.3454 32.0902C54.3738 31.941 54.3882 31.7917 54.3885 31.6424L54.3755 31.2503C54.3296 30.8955 54.2978 30.55 54.28 30.2139C54.2715 29.8686 54.249 29.5185 54.2125 29.1637C54.1579 28.5941 53.8372 28.0562 53.2504 27.55C53.1014 27.4187 52.9009 27.3246 52.6491 27.2676C52.4065 27.2107 52.1453 27.1677 51.8654 27.1386C51.828 27.1291 51.7814 27.1243 51.7254 27.1241C51.5667 27.1235 51.4779 27.1745 51.459 27.2771L51.4021 27.6688C51.3736 27.8741 51.3451 28.0793 51.3166 28.2845C51.2881 28.4804 51.2736 28.681 51.2731 28.8863C51.2729 28.9797 51.2774 29.0777 51.2864 29.1804C51.2955 29.2738 51.3093 29.3672 51.3278 29.4606C51.3273 29.6566 51.3408 29.8526 51.3683 30.0487C51.3766 30.5154 51.3847 30.9915 51.3929 31.4768C51.4011 31.9622 51.4326 32.4336 51.4875 32.8912C51.5058 33.0406 51.5241 33.19 51.5424 33.3394C51.5607 33.4981 51.5976 33.6663 51.6532 33.8438ZM50.0071 25.6054L50.1191 25.6059L51.533 25.6393C51.8409 25.6498 52.1349 25.679 52.4148 25.7267C52.6946 25.7745 52.9698 25.8362 53.2403 25.9119C53.6694 26.0256 54.0096 26.1949 54.2611 26.4198C54.615 26.7385 54.8849 27.0756 55.0707 27.431C55.2565 27.7864 55.3909 28.1462 55.4741 28.5105C55.548 28.8281 55.5845 29.1456 55.5838 29.463C55.5924 29.771 55.6289 30.0791 55.6935 30.3874L55.6776 31.1993L55.6904 31.6894L55.7039 31.8994C55.7034 32.1141 55.6795 32.324 55.6324 32.5292C55.5852 32.7436 55.524 32.9581 55.4488 33.1725C55.3549 33.4241 55.1863 33.6521 54.9432 33.8565C54.7094 34.0609 54.4335 34.2559 54.1158 34.4413C53.6671 34.7009 53.172 34.8904 52.6304 35.0096C52.0888 35.1289 51.496 35.1872 50.852 35.1848L50.544 35.1696L48.8642 35.1071L48.4442 35.1055C48.3788 35.1052 48.3089 35.091 48.2343 35.0627C48.169 35.0438 48.099 35.0202 48.0244 34.9919C47.7727 34.8882 47.6426 34.6404 47.6342 34.2484C47.5815 32.8668 47.5382 31.4946 47.5041 30.1318C47.4864 29.7398 47.4734 29.343 47.465 28.9417L47.4514 28.7736C47.4423 28.6616 47.4379 28.5542 47.4382 28.4516C47.4385 28.3116 47.4435 28.1763 47.4532 28.0456C47.4455 27.3736 47.4424 26.7016 47.444 26.0296C47.4453 25.5162 47.4465 24.9982 47.4478 24.4756C47.4584 23.953 47.4783 23.407 47.5077 22.8378C47.5281 22.1099 47.5392 21.3912 47.5409 20.6819C47.5426 19.9726 47.549 19.2539 47.5601 18.526C47.5703 18.1807 47.6082 17.9242 47.674 17.7564C47.6833 17.7378 47.6881 17.7191 47.6881 17.7005C47.7445 17.514 47.8661 17.4118 48.0528 17.3939C48.7249 17.3591 49.3877 17.329 50.0411 17.3035C50.7038 17.2687 51.3712 17.2526 52.0432 17.2552C52.2952 17.2562 52.5472 17.2618 52.7991 17.2721C53.0511 17.2731 53.3171 17.2835 53.5971 17.3032C53.9424 17.3232 54.2877 17.3339 54.633 17.3352C54.9783 17.3272 55.3283 17.3286 55.683 17.3393C55.8883 17.3494 56.0282 17.3966 56.1026 17.4809C56.1771 17.5558 56.2141 17.7006 56.2136 17.9153L56.1832 18.8952C56.1642 19.0538 56.1266 19.1656 56.0704 19.2308C56.0143 19.2959 55.9115 19.3282 55.7622 19.3276L55.5802 19.3269C55.3935 19.3262 55.2068 19.3301 55.0202 19.3387C54.8335 19.338 54.6468 19.3373 54.4602 19.3366C54.4135 19.3364 54.3342 19.3361 54.2222 19.3356C54.1102 19.3259 53.9749 19.3207 53.8162 19.3201C53.6669 19.3102 53.5083 19.3002 53.3403 19.2902C53.1816 19.2803 53.023 19.2704 52.8643 19.2604C52.7057 19.2505 52.5564 19.2452 52.4164 19.2447C52.2857 19.2349 52.1831 19.2298 52.1084 19.2295C51.9218 19.2288 51.7397 19.2327 51.5624 19.2414C51.3851 19.2407 51.203 19.2493 51.0163 19.2673C50.979 19.2765 50.909 19.2809 50.8063 19.2805C50.7036 19.2801 50.5963 19.2797 50.4843 19.2792L50.1203 19.2778C50.1198 19.4832 50.124 19.6885 50.1328 19.8939C50.1412 20.2766 50.145 20.6593 50.144 21.0419C50.1438 21.1446 50.1387 21.3126 50.1288 21.5459C50.1189 21.7792 50.109 22.0498 50.0989 22.3578C50.0981 22.6658 50.088 22.9924 50.0685 23.3377C50.0584 23.683 50.0482 24.0189 50.0381 24.3456C50.0373 24.6722 50.0319 24.9709 50.0219 25.2415C50.0216 25.3722 50.0167 25.4935 50.0071 25.6054ZM61.6694 25.0904C61.5481 25.0899 61.4733 25.1456 61.445 25.2575C61.4168 25.3601 61.4023 25.556 61.4016 25.8453C61.3906 26.5266 61.3844 27.1893 61.3828 27.8333C61.3813 28.468 61.38 29.0093 61.3789 29.4573C61.3684 29.9426 61.3578 30.4885 61.347 31.0952C61.3362 31.7111 61.3253 32.3411 61.3144 32.9851L61.299 33.587C61.2985 33.7643 61.3497 33.8532 61.4523 33.8536L61.5224 33.8399C61.5691 33.8214 61.6158 33.8029 61.6625 33.7844C61.7185 33.7753 61.7699 33.7615 61.8166 33.743C62.0503 33.6039 62.2514 33.4133 62.42 33.1713C62.5885 32.9386 62.7153 32.6264 62.8002 32.2348C63.0173 31.2463 63.1411 30.2247 63.1716 29.1702C63.1718 29.1049 63.1719 29.0349 63.1721 28.9602C63.1817 28.8762 63.1865 28.7876 63.1868 28.6942C63.1869 28.6476 63.187 28.6009 63.1871 28.5542C63.1872 28.5076 63.1827 28.4609 63.1734 28.4142C63.1644 28.2835 63.1509 28.0968 63.1328 27.854C63.1241 27.602 63.1014 27.3406 63.0647 27.0698C63.0285 26.5936 62.9315 26.1919 62.7736 25.8646C62.6157 25.5374 62.3736 25.3124 62.0472 25.1898C62.0286 25.1804 62.0099 25.171 61.9913 25.1616C61.982 25.1522 61.968 25.1475 61.9493 25.1475C61.884 25.1285 61.828 25.1143 61.7814 25.1048C61.7348 25.0953 61.6974 25.0905 61.6694 25.0904ZM57.6698 17.4589L57.7538 17.4592C58.0245 17.4696 58.2951 17.48 58.5657 17.4904C58.8364 17.4914 59.1071 17.5018 59.3777 17.5215C59.443 17.5311 59.5083 17.5407 59.5736 17.5502C59.6389 17.5505 59.7042 17.5601 59.7695 17.579C60.1053 17.6736 60.2728 17.9029 60.2719 18.2669L60.2128 19.5267C60.2032 19.676 60.1981 19.8253 60.1978 19.9747C60.1974 20.124 60.197 20.2733 60.1967 20.4227C60.1959 20.7587 60.1951 21.0947 60.1943 21.4307C60.2028 21.7667 60.2066 22.0981 60.2059 22.4247L60.2032 23.5307C60.2029 23.6707 60.2213 23.7548 60.2586 23.7829C60.3052 23.8111 60.4125 23.8255 60.5805 23.8262C61.0471 23.8373 61.4576 23.9275 61.8118 24.0969C62.1661 24.2569 62.4643 24.4681 62.7063 24.7304C62.9577 24.9927 63.1576 25.2921 63.3061 25.6287C63.4547 25.9559 63.5565 26.2923 63.6117 26.6379C63.6484 26.9087 63.6851 27.1748 63.7218 27.4363C63.7585 27.6978 63.7813 27.9219 63.7902 28.1086C63.8083 28.3513 63.8171 28.5473 63.8168 28.6967C63.8164 28.8367 63.8162 28.944 63.816 29.0187L63.8157 29.1447C63.7662 30.3111 63.5768 31.4584 63.2474 32.5865C63.0122 33.3696 62.6467 33.9655 62.1511 34.3743C61.6647 34.7831 61.0621 35.0328 60.3433 35.1233L59.8392 35.1494L58.8312 35.1455L57.8932 35.1559L57.4172 35.1401C57.0626 35.1107 56.8202 35.0164 56.6899 34.8573C56.5596 34.7074 56.4902 34.4365 56.4819 34.0444L56.4824 33.8204C56.5023 33.3072 56.5175 32.7939 56.5281 32.2806C56.5293 31.7673 56.5399 31.254 56.5598 30.7407C56.5703 30.2741 56.5761 29.8121 56.5772 29.3548C56.5876 28.8882 56.5934 28.4168 56.5946 27.9408L56.5994 25.9388C56.6008 25.3508 56.6023 24.7395 56.6038 24.1049C56.6054 23.4609 56.6069 22.8169 56.6085 22.1729C56.6193 21.5289 56.6302 20.8896 56.6411 20.255C56.652 19.611 56.6721 18.9904 56.7016 18.3932C56.7122 17.8706 56.9462 17.5681 57.4038 17.4859C57.4504 17.4767 57.4971 17.4722 57.5438 17.4724C57.5905 17.4633 57.6325 17.4588 57.6698 17.4589ZM64.9912 35.1692C64.9352 35.169 64.8839 35.1548 64.8373 35.1266C64.8 35.1078 64.758 35.0843 64.7114 35.0562C64.5437 34.9528 64.4556 34.7052 64.4472 34.3131C64.4132 32.9317 64.3838 31.5642 64.3591 30.2108C64.3344 28.848 64.3237 27.4759 64.327 26.0946C64.3283 25.5813 64.3295 25.0633 64.3308 24.5406C64.3414 24.018 64.352 23.472 64.3627 22.9027C64.3831 22.1748 64.3942 21.4562 64.3959 20.7468C64.3976 20.0375 64.404 19.3189 64.4151 18.5909C64.4161 18.1709 64.4495 17.8817 64.5152 17.7233C64.5902 17.5649 64.7211 17.4861 64.9078 17.4868L65.7476 17.56C65.8875 17.5886 65.9807 17.6636 66.0271 17.7851C66.0828 17.9067 66.1103 18.1168 66.1095 18.4154L66.1086 18.7934C66.1077 19.1854 66.1067 19.5728 66.1058 19.9554C66.1142 20.3381 66.118 20.7208 66.1171 21.1035C66.1168 21.2061 66.1117 21.3741 66.1018 21.6074C66.1013 21.8408 66.096 22.1114 66.0859 22.4194C66.0851 22.7274 66.0797 23.054 66.0695 23.3993C66.0594 23.7446 66.0539 24.0806 66.0531 24.4073C66.0523 24.7339 66.0469 25.0326 66.0369 25.3032C66.0363 25.5739 66.0358 25.7885 66.0354 25.9472C66.0345 26.3299 66.0336 26.7079 66.0327 27.0812C66.0411 27.4546 66.0495 27.8279 66.058 28.2013L66.0532 30.1753C66.052 30.67 66.0602 31.16 66.0777 31.6454C66.1045 32.1308 66.1266 32.6256 66.1441 33.1297C66.1528 33.3817 66.1569 33.6337 66.1563 33.8857L66.1552 34.3057C66.1354 34.8096 66.0087 35.0798 65.7753 35.1163C65.6446 35.1344 65.5139 35.1479 65.3832 35.1567C65.2525 35.1656 65.1218 35.1697 64.9912 35.1692ZM71.9239 35.1819C71.7186 35.1718 71.5133 35.1617 71.3079 35.1516C71.1119 35.1508 70.9066 35.15 70.692 35.1492L69.9919 35.1605C69.7026 35.1594 69.4414 35.107 69.2083 35.0035C68.9752 34.9092 68.7702 34.7778 68.5932 34.6091C68.4257 34.4405 68.2861 34.2486 68.1746 34.0335C68.0632 33.8184 67.9797 33.5894 67.9243 33.3465C67.8226 32.9261 67.735 32.5058 67.6613 32.0855C67.597 31.6652 67.528 31.2403 67.4544 30.8107C67.39 30.4184 67.3396 30.0262 67.3032 29.6341C67.2762 29.2327 67.2539 28.8219 67.2362 28.4018C67.2279 27.9818 67.2196 27.5478 67.2113 27.0997C67.2124 26.6517 67.2089 26.1804 67.2007 25.6857L67.2185 24.1317C67.2191 23.8797 67.2197 23.6277 67.2203 23.3757C67.2209 23.1237 67.2309 22.8764 67.2501 22.6339C67.2987 21.8407 67.4638 21.0947 67.7455 20.3957C68.0272 19.6968 68.3835 19.0215 68.8144 18.3699C69.2172 17.7741 69.7685 17.4775 70.4685 17.4802L71.7705 17.4852L72.4705 17.5019C73.3571 17.5333 74.1263 17.863 74.7781 18.4908C74.9923 18.697 75.1691 18.9263 75.3084 19.1789C75.4479 19.4221 75.5405 19.6931 75.5865 19.992L75.6 20.188C75.5996 20.3467 75.5806 20.4819 75.543 20.5938C75.496 20.7616 75.4163 20.892 75.3041 20.9849C75.1919 21.0684 75.0658 21.11 74.9258 21.1094L74.8418 21.1091C74.6925 21.0899 74.5666 21.0334 74.4642 20.9396C74.3618 20.8366 74.3108 20.6964 74.3112 20.519L74.3114 20.435C74.3124 20.0244 74.1918 19.7066 73.9497 19.4816C73.7169 19.2567 73.4374 19.0737 73.111 18.9324C73.0178 18.8947 72.9385 18.8664 72.8732 18.8475C72.808 18.8286 72.7426 18.819 72.6773 18.8187C72.5746 18.8183 72.4859 18.8507 72.4111 18.9157C72.3363 18.9808 72.252 19.0831 72.1583 19.2227C71.7649 19.8186 71.4554 20.4427 71.2298 21.0952C71.0043 21.7383 70.8813 22.4238 70.8609 23.1518L70.8413 25.4477C70.8394 26.2597 70.847 26.9877 70.8641 27.6318C70.8812 28.2759 70.9124 28.8967 70.9576 29.4942C71.0028 30.0824 71.0761 30.6613 71.1774 31.231C71.2787 31.8101 71.3939 32.3939 71.5232 32.9824C71.5324 33.0291 71.5416 33.0711 71.5509 33.1085C71.5601 33.1552 71.574 33.2019 71.5925 33.2487C71.7502 33.6506 71.9831 33.8522 72.2911 33.8533C72.4031 33.8538 72.5385 33.8263 72.6973 33.7709C72.9869 33.66 73.2532 33.5304 73.4962 33.382C73.7392 33.2336 73.9543 33.0524 74.1415 32.8385C74.3287 32.6339 74.4786 32.3918 74.5913 32.1122C74.704 31.8326 74.77 31.5155 74.7896 31.161L74.8047 30.685C74.8054 30.4143 74.792 30.1483 74.7646 29.8869C74.7466 29.6254 74.7192 29.3593 74.6826 29.0885C74.6735 28.9952 74.6643 28.9018 74.6552 28.8084C74.6461 28.7151 74.6417 28.617 74.6419 28.5144C74.6421 28.4677 74.6422 28.4257 74.6423 28.3884C74.6423 28.351 74.6471 28.3091 74.6566 28.2624C74.685 28.0852 74.7553 27.9455 74.8676 27.8432C74.9798 27.7317 75.1153 27.6762 75.274 27.6768L75.302 27.6769C75.4513 27.6775 75.5818 27.7293 75.6936 27.8324C75.8054 27.9262 75.875 28.0618 75.9026 28.2392C75.9483 28.6594 75.9939 29.0796 76.0396 29.4998C76.0853 29.9106 76.1076 30.326 76.1066 30.746C76.1062 30.9047 76.1011 31.0633 76.0914 31.222C76.0817 31.3806 76.0673 31.5392 76.0483 31.6978C76.0005 32.1456 75.8782 32.5558 75.6813 32.9284C75.4844 33.301 75.2223 33.636 74.8949 33.9334C74.4833 34.3051 74.0393 34.6068 73.5627 34.8383C73.0861 35.0698 72.5539 35.1844 71.9659 35.1821L71.9239 35.1819ZM81.5253 35.2889C81.3293 35.2882 81.1334 35.2781 80.9374 35.2587C80.7508 35.2486 80.5595 35.2245 80.3636 35.1865C80.149 35.139 79.9952 35.059 79.9022 34.9467C79.8184 34.8437 79.7675 34.6755 79.7494 34.4421C79.668 33.3498 79.6006 32.2622 79.5472 31.1793C79.5032 30.1058 79.4824 29.0184 79.4851 27.917L79.5017 26.8391C79.5227 25.8778 79.5343 24.9212 79.5366 23.9692C79.5483 23.0079 79.5786 22.0373 79.6276 21.0575C79.6471 20.7403 79.6665 20.4323 79.6859 20.1337C79.7146 19.8259 79.7479 19.546 79.7859 19.2941L79.786 19.2381C79.7863 19.1168 79.7585 19.028 79.7027 18.9718C79.6561 18.9156 79.5675 18.878 79.4369 18.8588C79.1943 18.8298 78.9564 18.8149 78.723 18.814C78.639 18.8137 78.5504 18.8134 78.457 18.813C78.373 18.8127 78.289 18.817 78.205 18.826C78.121 18.8164 78.037 18.8114 77.953 18.8111C77.869 18.8107 77.7897 18.8011 77.7151 18.7821C77.5752 18.7443 77.4634 18.6738 77.3796 18.5709C77.2959 18.4679 77.2542 18.3464 77.2545 18.2064L77.2546 18.1644C77.2552 17.9124 77.3863 17.7215 77.648 17.5919C77.7694 17.5457 77.8955 17.5228 78.0261 17.5233L78.1941 17.538C79.1554 17.551 80.1027 17.564 81.036 17.5769C81.9787 17.5806 82.9307 17.5842 83.892 17.5879L84.844 17.5916C85.012 17.5922 85.1986 17.6163 85.4038 17.6638C85.5624 17.711 85.6835 17.7908 85.7672 17.9032C85.8603 18.0062 85.9067 18.1277 85.9064 18.2677L85.8921 18.3656C85.8731 18.5149 85.8075 18.6407 85.6952 18.7429C85.583 18.8358 85.4382 18.8866 85.2609 18.8952L84.0289 18.8905C83.9169 18.89 83.8282 18.8944 83.7628 18.9034C83.7068 18.9032 83.6648 18.9171 83.6367 18.945C83.6087 18.9729 83.5852 19.0194 83.5664 19.0847C83.5569 19.1407 83.5474 19.2246 83.5378 19.3366C83.4331 20.1855 83.3657 21.0393 83.3356 21.8978C83.3149 22.7471 83.3035 23.5964 83.3015 24.4457L83.2959 26.7417C83.2858 27.0683 83.2757 27.3996 83.2655 27.7356C83.2648 28.0623 83.264 28.3889 83.2632 28.7156C83.2621 29.1542 83.2657 29.5929 83.274 30.0316C83.2823 30.461 83.3046 30.8951 83.3409 31.3339C83.3771 31.7914 83.3947 32.2441 83.3936 32.6921C83.3925 33.1494 83.4287 33.6069 83.5023 34.0645C83.5116 34.0926 83.5162 34.1206 83.5161 34.1486C83.516 34.1859 83.5159 34.2186 83.5159 34.2466L83.5012 34.5125C83.4727 34.7084 83.407 34.8622 83.3041 34.9738C83.2105 35.0854 83.0657 35.1549 82.8696 35.1821C82.6455 35.2186 82.4214 35.2457 82.1974 35.2635C81.9734 35.2813 81.7493 35.2898 81.5253 35.2889ZM92.0191 27.6713C92.0751 27.6715 92.1358 27.6671 92.2011 27.658C92.2758 27.649 92.3599 27.6353 92.4532 27.617C92.4812 27.6171 92.5092 27.6125 92.5373 27.6033C92.5653 27.5941 92.5886 27.5848 92.6073 27.5756C93.1116 27.4562 93.4855 27.2336 93.7289 26.9079C93.9817 26.5822 94.1414 26.1815 94.2078 25.7057C94.2552 25.4352 94.2884 25.1787 94.3077 24.9361C94.3363 24.6842 94.3601 24.493 94.3791 24.3624C94.3885 24.3157 94.3933 24.2691 94.3934 24.2224C94.3935 24.1758 94.3936 24.1291 94.3938 24.0824C94.394 23.9891 94.3895 23.9051 94.3804 23.8304C94.3806 23.7464 94.3807 23.6717 94.3809 23.6064C94.3368 22.5515 94.1526 21.5288 93.8283 20.5382C93.6986 20.1457 93.5033 19.8323 93.2426 19.598C92.9818 19.3543 92.6696 19.1618 92.306 19.0204C92.2313 19.0014 92.1567 18.9871 92.0821 18.9775C92.0074 18.9585 91.9328 18.9396 91.8582 18.9206L91.7462 18.9062C91.5876 18.9056 91.508 18.994 91.5076 19.1713L91.5201 19.7733C91.5373 20.4174 91.5497 21.0475 91.5576 21.6635C91.5748 22.2702 91.5921 22.8163 91.6096 23.3017C91.6086 23.7497 91.6072 24.2957 91.6057 24.9397C91.6042 25.5744 91.6072 26.2324 91.6149 26.9137C91.6142 27.2031 91.6371 27.4038 91.6835 27.516C91.7299 27.6189 91.8418 27.6706 92.0191 27.6713ZM88.8228 35.275C88.7761 35.2749 88.7248 35.27 88.6688 35.2605C88.6221 35.2603 88.5755 35.2554 88.5288 35.2459C88.0157 35.1599 87.7551 34.8556 87.747 34.3329C87.7205 33.7355 87.7033 33.1147 87.6955 32.4707C87.6877 31.836 87.6799 31.1966 87.6722 30.5526C87.6737 29.9086 87.6752 29.2693 87.6768 28.6346C87.6783 27.9906 87.6798 27.3746 87.6812 26.7866L87.6861 24.7846C87.6872 24.3086 87.6837 23.8419 87.6754 23.3845C87.6766 22.9179 87.6683 22.4512 87.6508 21.9844C87.6334 21.471 87.6206 20.9577 87.6125 20.4443C87.6137 19.931 87.6057 19.4176 87.5882 18.9042L87.5888 18.6802C87.599 18.2882 87.6744 18.0178 87.8147 17.869C87.9644 17.711 88.2353 17.6187 88.6274 17.5922L89.1594 17.5802L90.1954 17.5982L91.3154 17.6025L91.8753 17.6327C92.6684 17.7291 93.3351 17.9836 93.8755 18.3964C94.4251 18.8092 94.825 19.4081 95.0751 20.193C95.4364 21.3238 95.6436 22.4726 95.6968 23.6395L95.6965 23.7655C95.6963 23.8401 95.6961 23.9521 95.6957 24.1014C95.6954 24.2414 95.6856 24.4327 95.6663 24.6753C95.6472 24.8619 95.6187 25.0858 95.5807 25.347C95.5428 25.6082 95.5001 25.874 95.4528 26.1445C95.3866 26.4896 95.2691 26.8298 95.1003 27.1652C94.9409 27.4912 94.7208 27.7844 94.4402 28.0446C94.1689 28.3049 93.8371 28.5183 93.4447 28.6848C93.0523 28.842 92.5994 28.9242 92.0861 28.9316C91.8994 28.9309 91.7827 28.9444 91.736 28.9722C91.6892 29 91.6657 29.084 91.6654 29.224L91.6627 30.33C91.6619 30.6566 91.6564 30.9879 91.6463 31.3239C91.6455 31.6599 91.6447 31.9959 91.6439 32.3319C91.6435 32.4812 91.6432 32.6306 91.6428 32.7799C91.6424 32.9292 91.6467 33.0786 91.6557 33.2279L91.7087 34.4882C91.7078 34.8522 91.5206 35.0801 91.147 35.172C91.0723 35.1904 90.9976 35.1994 90.923 35.1991C90.8576 35.2082 90.7876 35.2173 90.7129 35.2263C90.4142 35.2438 90.1155 35.252 89.8168 35.2509C89.5181 35.2591 89.2195 35.2672 88.9208 35.2754L88.8228 35.275ZM101.646 25.2444C101.524 25.2439 101.45 25.2996 101.421 25.4115C101.393 25.5141 101.379 25.71 101.378 25.9994C101.367 26.6806 101.361 27.3433 101.359 27.9873C101.358 28.622 101.356 29.1633 101.355 29.6113C101.345 30.0966 101.334 30.6425 101.323 31.2492C101.312 31.8651 101.302 32.4951 101.291 33.1391L101.275 33.741C101.275 33.9183 101.326 34.0072 101.429 34.0076L101.499 33.9939C101.545 33.9754 101.592 33.9569 101.639 33.9384C101.695 33.9293 101.746 33.9155 101.793 33.897C102.027 33.7579 102.228 33.5673 102.396 33.3253C102.565 33.0926 102.692 32.7805 102.776 32.3888C102.994 31.4003 103.117 30.3787 103.148 29.3242C103.148 29.2589 103.148 29.1889 103.148 29.1142C103.158 29.0302 103.163 28.9416 103.163 28.8482C103.163 28.8016 103.163 28.7549 103.163 28.7082C103.163 28.6616 103.159 28.6149 103.15 28.5682C103.141 28.4375 103.127 28.2508 103.109 28.008C103.1 27.756 103.078 27.4946 103.041 27.2238C103.005 26.7476 102.908 26.3459 102.75 26.0186C102.592 25.6914 102.35 25.4664 102.023 25.3438C102.005 25.3344 101.986 25.325 101.968 25.3156C101.958 25.3062 101.944 25.3015 101.926 25.3015C101.86 25.2825 101.804 25.2683 101.758 25.2588C101.711 25.2493 101.674 25.2445 101.646 25.2444ZM97.6461 17.6129L97.7301 17.6132C98.0007 17.6236 98.2714 17.634 98.542 17.6444C98.8127 17.6454 99.0833 17.6558 99.3539 17.6755C99.4193 17.6851 99.4846 17.6947 99.5499 17.7043C99.6152 17.7045 99.6805 17.7141 99.7458 17.733C100.082 17.8276 100.249 18.057 100.248 18.421L100.189 19.6807C100.179 19.83 100.174 19.9793 100.174 20.1287C100.174 20.278 100.173 20.4273 100.173 20.5767C100.172 20.9127 100.171 21.2487 100.171 21.5847C100.179 21.9207 100.183 22.2521 100.182 22.5787L100.179 23.6847C100.179 23.8247 100.198 23.9088 100.235 23.9369C100.281 23.9651 100.389 23.9795 100.557 23.9802C101.023 23.9913 101.434 24.0816 101.788 24.2509C102.142 24.411 102.441 24.6221 102.683 24.8844C102.934 25.1467 103.134 25.4461 103.282 25.7827C103.431 26.1099 103.533 26.4463 103.588 26.7919C103.625 27.0627 103.661 27.3288 103.698 27.5903C103.735 27.8518 103.758 28.0759 103.766 28.2626C103.785 28.5053 103.793 28.7013 103.793 28.8507C103.793 28.9907 103.792 29.098 103.792 29.1727L103.792 29.2987C103.742 30.4652 103.553 31.6124 103.224 32.7405C102.988 33.5236 102.623 34.1195 102.127 34.5283C101.641 34.9371 101.038 35.1868 100.32 35.2773L99.8155 35.3034L98.8075 35.2995L97.8694 35.3099L97.3935 35.2941C97.0389 35.2647 96.7964 35.1704 96.6662 35.0113C96.5359 34.8614 96.4665 34.5905 96.4581 34.1985L96.4587 33.9745C96.4786 33.4612 96.4938 32.9479 96.5044 32.4346C96.5056 31.9213 96.5162 31.408 96.5361 30.8947C96.5465 30.4281 96.5523 29.9661 96.5534 29.5088C96.5639 29.0422 96.5697 28.5708 96.5708 28.0948L96.5757 26.0929C96.5771 25.5049 96.5785 24.8935 96.5801 24.2589C96.5816 23.6149 96.5832 22.9709 96.5847 22.3269C96.5956 21.6829 96.6065 21.0436 96.6173 20.409C96.6282 19.765 96.6484 19.1444 96.6778 18.5472C96.6884 18.0246 96.9225 17.7221 97.38 17.6399C97.4267 17.6307 97.4734 17.6263 97.5201 17.6264C97.5667 17.6173 97.6088 17.6128 97.6461 17.6129ZM104.967 35.3232C104.911 35.323 104.86 35.3088 104.814 35.2806C104.776 35.2618 104.734 35.2383 104.688 35.2102C104.52 35.1068 104.432 34.8592 104.423 34.4671C104.389 33.0857 104.36 31.7182 104.335 30.3648C104.311 29.002 104.3 27.63 104.303 26.2486C104.305 25.7353 104.306 25.2173 104.307 24.6946C104.318 24.172 104.328 23.626 104.339 23.0567C104.359 22.3288 104.37 21.6102 104.372 20.9009C104.374 20.1915 104.38 19.4729 104.391 18.7449C104.392 18.3249 104.426 18.0357 104.491 17.8773C104.567 17.7189 104.697 17.6401 104.884 17.6408L105.724 17.714C105.864 17.7426 105.957 17.8176 106.003 17.9391C106.059 18.0607 106.087 18.2708 106.086 18.5694L106.085 18.9474C106.084 19.3394 106.083 19.7268 106.082 20.1094C106.091 20.4921 106.094 20.8748 106.093 21.2575C106.093 21.3602 106.088 21.5281 106.078 21.7614C106.078 21.9948 106.072 22.2654 106.062 22.5734C106.061 22.8814 106.056 23.208 106.046 23.5533C106.036 23.8986 106.03 24.2346 106.029 24.5613C106.029 24.8879 106.023 25.1866 106.013 25.4572C106.013 25.7279 106.012 25.9425 106.012 26.1012C106.011 26.4839 106.01 26.8619 106.009 27.2352C106.017 27.6086 106.026 27.9819 106.034 28.3553L106.029 30.3293C106.028 30.824 106.036 31.314 106.054 31.7994C106.081 32.2848 106.103 32.7796 106.12 33.2837C106.129 33.5357 106.133 33.7877 106.133 34.0397L106.132 34.4597C106.112 34.9636 105.985 35.2338 105.752 35.2703C105.621 35.2884 105.49 35.3019 105.359 35.3108C105.229 35.3196 105.098 35.3237 104.967 35.3232ZM112.586 35.3526C112.371 35.3424 112.208 35.2811 112.097 35.1687C111.985 35.0656 111.929 34.9207 111.93 34.7341L111.958 34.5242C111.996 34.3656 112.015 34.207 112.015 34.0484C112.025 33.8898 112.039 33.7311 112.058 33.5725C112.078 33.3766 112.092 33.0967 112.102 32.7327C112.122 32.3688 112.137 31.9675 112.147 31.5289C112.167 31.0996 112.177 30.6563 112.179 30.199C112.189 29.7324 112.195 29.303 112.196 28.911C112.206 28.5097 112.211 28.1644 112.212 27.8751C112.222 27.5858 112.227 27.3992 112.227 27.3152C112.229 26.8858 112.225 26.4331 112.217 25.9571C112.209 25.4717 112.205 24.9771 112.206 24.4731L112.207 24.1091C112.207 24.0531 112.189 24.0203 112.151 24.0108C112.105 24.048 112.072 24.0945 112.053 24.1505C112.044 24.1971 112.03 24.2484 112.011 24.3043C111.822 24.9849 111.634 25.6655 111.446 26.3461C111.257 27.0268 111.06 27.7073 110.853 28.3879C110.58 29.2922 110.326 30.1919 110.09 31.0869C109.855 31.982 109.564 32.8303 109.216 33.6316C109.122 33.8459 109.033 34.0556 108.949 34.2606C108.864 34.4656 108.77 34.6659 108.667 34.8615C108.517 35.1689 108.298 35.3221 108.008 35.321L107.798 35.2921C107.397 35.2066 107.183 34.9351 107.156 34.4777C107.156 34.4217 107.156 34.3657 107.157 34.3097C107.166 34.2537 107.176 34.1977 107.185 34.1418C107.244 33.0967 107.311 32.0329 107.389 30.9505C107.475 29.8589 107.562 28.7579 107.649 27.6475C107.726 26.6585 107.779 25.6787 107.81 24.7081C107.84 23.7282 107.856 22.7436 107.859 21.7543C107.86 21.3716 107.861 20.9936 107.862 20.6203C107.862 20.247 107.859 19.8876 107.85 19.5422L107.839 18.3102C107.849 18.1236 107.905 17.9791 108.008 17.8768C108.12 17.7653 108.261 17.7005 108.429 17.6825L108.457 17.6826C108.615 17.6832 108.751 17.7304 108.862 17.8241C108.974 17.9179 109.048 18.0535 109.085 18.231C109.104 18.3244 109.113 18.4178 109.113 18.5111C109.112 18.6044 109.117 18.6978 109.126 18.7912C109.144 19.0339 109.153 19.2953 109.152 19.5753C109.161 19.846 109.165 20.1213 109.164 20.4013L109.144 22.9213C109.141 23.9946 109.106 25.0585 109.038 26.1129C108.97 27.1673 108.898 28.2263 108.821 29.29C108.802 29.4206 108.787 29.5559 108.778 29.6959C108.768 29.8265 108.763 29.9618 108.763 30.1018C108.763 30.1858 108.767 30.2745 108.776 30.3679C108.785 30.4519 108.799 30.5406 108.817 30.634C108.846 30.5595 108.874 30.4896 108.902 30.4244C108.93 30.3591 108.954 30.2892 108.972 30.2146C109.132 29.6739 109.288 29.1378 109.438 28.6064C109.598 28.075 109.754 27.539 109.904 26.9982C110.309 25.5531 110.709 24.122 111.105 22.7048C111.509 21.2784 111.821 19.8375 112.039 18.3824C112.068 18.1678 112.133 18.0094 112.236 17.9071C112.348 17.8049 112.521 17.7449 112.755 17.7271C113.025 17.7095 113.291 17.6965 113.553 17.6882C113.814 17.6799 114.08 17.6762 114.351 17.6773C114.743 17.6788 115.125 17.6943 115.499 17.7237C115.723 17.7432 115.895 17.8186 116.016 17.9497C116.146 18.0809 116.211 18.2538 116.211 18.4684L116.21 18.7904C116.209 19.0238 116.214 19.2571 116.222 19.4905C116.231 19.7145 116.235 19.9432 116.235 20.1765L116.234 20.4565C116.214 20.8765 116.204 21.3104 116.203 21.7584C116.202 22.2064 116.201 22.6591 116.2 23.1164C116.198 23.6204 116.197 24.1198 116.196 24.6144C116.204 25.0998 116.217 25.5945 116.234 26.0986L116.247 26.7566L116.246 26.9806C116.246 27.1393 116.241 27.3586 116.231 27.6386C116.23 27.9092 116.225 28.2126 116.215 28.5485C116.204 28.8845 116.194 29.2438 116.184 29.6264C116.174 29.9997 116.163 30.3683 116.153 30.7323C116.152 31.087 116.147 31.423 116.137 31.7402C116.127 32.0669 116.121 32.3422 116.121 32.5662C116.12 32.8555 116.105 33.1401 116.077 33.42C116.048 33.7093 116.024 33.9985 116.005 34.2878C116.004 34.4558 115.976 34.6236 115.919 34.7914C115.816 35.1457 115.582 35.3221 115.218 35.3207C114.779 35.3284 114.341 35.336 113.902 35.3437C113.473 35.3513 113.034 35.3543 112.586 35.3526ZM112.839 17.5175C112.643 17.5167 112.447 17.5066 112.251 17.4872C112.055 17.4584 111.864 17.4204 111.677 17.373L109.843 17.3659C109.806 17.3658 109.769 17.3656 109.731 17.3655C109.703 17.356 109.671 17.3419 109.634 17.3231C109.55 17.2668 109.485 17.1872 109.438 17.0843C109.392 16.9722 109.369 16.8507 109.369 16.7201L109.369 16.6921C109.369 16.5427 109.393 16.4215 109.44 16.3283C109.496 16.2259 109.566 16.1515 109.65 16.1052C109.725 16.0774 109.805 16.0638 109.889 16.0641L110.085 16.0788C110.448 16.1269 110.812 16.1516 111.176 16.153C111.55 16.1451 111.923 16.1699 112.296 16.2274C112.362 16.2369 112.427 16.2465 112.492 16.2561C112.567 16.2564 112.637 16.2567 112.702 16.2569C112.851 16.2575 112.996 16.2487 113.136 16.2306C113.286 16.2125 113.435 16.1944 113.584 16.1763C113.622 16.1671 113.654 16.1626 113.682 16.1627C113.72 16.1535 113.757 16.149 113.794 16.1491L113.906 16.1636C114 16.1826 114.074 16.2435 114.13 16.3464C114.186 16.4493 114.218 16.5708 114.227 16.7108L114.227 16.7808C114.227 16.9208 114.203 17.042 114.156 17.1445C114.109 17.247 114.039 17.3214 113.945 17.3677C113.88 17.4048 113.81 17.4325 113.735 17.4509C113.67 17.46 113.6 17.469 113.525 17.4781C113.301 17.5052 113.072 17.5183 112.839 17.5175ZM128.351 35.4273C128.173 35.4266 127.996 35.426 127.819 35.4253C127.651 35.4246 127.473 35.4146 127.287 35.3952C127.063 35.3757 126.858 35.3002 126.671 35.1689C126.485 35.0468 126.313 34.9061 126.154 34.7469C125.745 34.2879 125.429 33.7967 125.206 33.2732C124.983 32.7497 124.826 32.1937 124.734 31.6054C124.716 31.4373 124.697 31.2692 124.679 31.1012C124.67 30.9331 124.666 30.7651 124.666 30.5971C124.667 30.2704 124.682 29.9485 124.711 29.6313C124.749 29.3047 124.791 28.9782 124.839 28.6518C124.915 28.2507 125.12 28.0508 125.456 28.0521L125.512 28.0523C125.69 28.0624 125.834 28.1282 125.946 28.25C126.058 28.3718 126.113 28.5307 126.113 28.7267L126.112 28.8387C126.112 28.9693 126.103 29.1 126.084 29.2305C126.074 29.3612 126.06 29.4918 126.041 29.6224C126.022 29.781 126.003 29.9349 125.983 30.0842C125.974 30.2335 125.969 30.3874 125.968 30.5461C125.966 31.4701 126.188 32.353 126.634 33.1947C126.792 33.494 127.011 33.7235 127.29 33.8832C127.57 34.043 127.859 34.1234 128.158 34.1246C128.344 34.1253 128.526 34.098 128.704 34.0427C128.881 33.9874 129.05 33.8947 129.209 33.7646C129.311 33.681 129.396 33.5787 129.461 33.4576C129.527 33.3458 129.583 33.2294 129.63 33.1082C129.715 32.8659 129.776 32.6281 129.814 32.3949C129.852 32.1618 129.871 31.9238 129.872 31.6812C129.872 31.3825 129.845 31.0884 129.79 30.7988C129.744 30.5093 129.679 30.2151 129.596 29.9161C129.577 29.8507 129.55 29.7946 129.512 29.7478C129.475 29.6916 129.438 29.6355 129.401 29.5793C129.298 29.4109 129.182 29.3265 129.051 29.326C128.977 29.3257 128.893 29.3534 128.799 29.409C128.762 29.4369 128.72 29.46 128.673 29.4785C128.636 29.4877 128.594 29.5016 128.547 29.52C128.453 29.5383 128.383 29.5474 128.337 29.5472C128.094 29.5463 127.917 29.4523 127.805 29.2652C127.731 29.1436 127.694 29.0221 127.694 28.9008C127.695 28.7421 127.756 28.5883 127.877 28.4395C127.943 28.3744 128.018 28.314 128.102 28.2583C128.401 28.0541 128.644 27.8124 128.832 27.5331C129.019 27.2538 129.169 26.9464 129.282 26.6109C129.366 26.3685 129.437 26.0514 129.494 25.6597C129.56 25.2679 129.599 24.8807 129.609 24.4981L129.626 23.2802C129.627 22.9722 129.623 22.6641 129.614 22.3561C129.606 22.0387 129.588 21.7213 129.56 21.4039C129.542 21.1238 129.501 20.8483 129.436 20.5774C129.381 20.3065 129.312 20.0356 129.228 19.7646C129.089 19.3441 128.875 19.1332 128.586 19.1321C128.446 19.1316 128.273 19.1729 128.068 19.2561C127.647 19.4412 127.301 19.7152 127.03 20.0781C126.721 20.4969 126.482 20.9394 126.312 21.4054C126.143 21.8714 126.03 22.361 125.973 22.8741L125.958 23.112C125.958 23.2427 125.967 23.3781 125.985 23.5181C126.013 23.6582 126.045 23.7937 126.082 23.9245C126.11 24.0086 126.124 24.0927 126.124 24.1767C126.123 24.4567 125.987 24.6428 125.716 24.7351C125.642 24.7628 125.567 24.7765 125.492 24.7762C125.212 24.7752 125.007 24.6344 124.877 24.3539C124.729 23.9893 124.655 23.6017 124.656 23.191C124.656 23.1257 124.656 23.065 124.657 23.009C124.657 22.9437 124.662 22.8784 124.671 22.8131C124.728 22.2346 124.846 21.6797 125.025 21.1484C125.204 20.6171 125.452 20.1047 125.771 19.6113C126.127 19.0527 126.552 18.6156 127.048 18.3002C127.543 17.9754 128.127 17.7957 128.799 17.7609L129.835 17.7649L130.871 17.7829C131.319 17.8033 131.683 17.926 131.962 18.1511C132.242 18.3669 132.465 18.6664 132.632 19.0497C132.901 19.6761 133.063 20.3254 133.117 20.9976C133.154 21.3337 133.181 21.6698 133.199 22.0059C133.226 22.3327 133.239 22.6361 133.239 22.9161L133.238 23.2101C133.218 23.91 133.193 24.5492 133.163 25.1278C133.143 25.7064 133.063 26.2194 132.922 26.6669C132.846 26.8999 132.767 27.1283 132.682 27.352C132.607 27.5757 132.504 27.7899 132.373 27.9948C132.354 28.0414 132.335 28.0833 132.316 28.1206C132.297 28.1485 132.288 28.1811 132.288 28.2184C132.288 28.2744 132.316 28.3306 132.372 28.3868C132.614 28.6304 132.804 28.8831 132.944 29.145C133.092 29.4069 133.204 29.6826 133.278 29.9723C133.352 30.2619 133.398 30.5561 133.416 30.8548C133.434 31.1535 133.442 31.4569 133.441 31.7649L133.441 32.1009C133.439 32.8289 133.241 33.5282 132.848 34.1986C132.529 34.7387 132.057 35.0869 131.431 35.2432C131.076 35.3352 130.726 35.3898 130.381 35.4071C130.045 35.4245 129.699 35.4325 129.345 35.4312L128.351 35.4273ZM138.989 24.6462C138.988 25.0942 139.001 25.5376 139.028 25.9764C139.055 26.4152 139.077 26.8586 139.095 27.3067C139.094 27.428 139.117 27.5168 139.164 27.5729C139.21 27.6291 139.304 27.6668 139.444 27.686C139.556 27.6958 139.668 27.7055 139.78 27.7153C139.892 27.7157 140.004 27.7162 140.116 27.7166C140.452 27.7179 140.783 27.7052 141.11 27.6784C141.446 27.6424 141.782 27.611 142.118 27.5843C142.249 27.5755 142.351 27.5619 142.426 27.5435C142.501 27.5158 142.557 27.4787 142.594 27.4321C142.632 27.3856 142.655 27.3204 142.665 27.2364C142.674 27.1525 142.684 27.0405 142.694 26.9005C142.694 26.7979 142.694 26.6952 142.694 26.5925C142.704 26.4806 142.709 26.3732 142.709 26.2706C142.711 25.6546 142.689 25.0432 142.643 24.4363C142.608 23.8295 142.567 23.218 142.522 22.6018C142.495 22.3311 142.458 22.0649 142.412 21.8034C142.375 21.5419 142.324 21.2757 142.26 21.0048C142.186 20.6965 142.07 20.4114 141.912 20.1495C141.763 19.8876 141.586 19.6395 141.382 19.4054C141.251 19.2463 141.107 19.143 140.948 19.0958C140.79 19.0391 140.622 19.0105 140.445 19.0098C140.37 19.0095 140.295 19.0139 140.22 19.0229C140.146 19.0227 140.071 19.027 139.996 19.0361C139.782 19.0539 139.637 19.1374 139.562 19.2864C139.487 19.4261 139.417 19.5705 139.351 19.7196C139.05 20.4558 138.899 21.2345 138.897 22.0559C138.897 22.1119 138.897 22.1679 138.897 22.2239C138.906 22.2799 138.911 22.3359 138.91 22.3919C138.919 22.7373 138.927 23.0827 138.936 23.428C138.954 23.7641 138.972 24.1095 138.989 24.4642L138.989 24.6462ZM135.328 27.5862C135.293 26.6807 135.258 25.7845 135.222 24.8977C135.196 24.011 135.175 23.1195 135.159 22.2235C135.159 22.1861 135.154 22.1488 135.145 22.1114C135.145 22.0741 135.145 22.0367 135.145 21.9994C135.156 21.4675 135.213 20.9497 135.317 20.4461C135.43 19.9425 135.599 19.4485 135.825 18.964C136.144 18.2372 136.686 17.8427 137.451 17.7803C137.797 17.7443 138.138 17.7222 138.474 17.7142C138.819 17.6969 139.164 17.6889 139.51 17.6902C139.958 17.6919 140.406 17.7077 140.854 17.7374C141.171 17.7573 141.455 17.8424 141.707 17.9927C141.959 18.1336 142.187 18.3258 142.392 18.5693C142.699 18.9438 142.959 19.3415 143.173 19.7623C143.386 20.1738 143.53 20.6224 143.603 21.108C143.732 21.9298 143.828 22.7422 143.892 23.5451C143.964 24.3387 144 25.1462 143.998 25.9675C143.997 26.2475 143.992 26.5275 143.982 26.8075C143.972 27.0781 143.957 27.3534 143.938 27.6333C143.918 27.8852 143.899 28.1372 143.88 28.3891C143.87 28.6317 143.865 28.879 143.864 29.131C143.863 29.4297 143.872 29.7237 143.89 30.0132C143.917 30.2933 143.954 30.5827 144 30.8816C144.027 31.2644 144.045 31.6331 144.053 31.9878C144.071 32.3519 144.089 32.6973 144.107 33.024C144.125 33.3601 144.152 33.6775 144.188 33.9763C144.225 34.2751 144.28 34.546 144.355 34.789C144.373 34.8637 144.382 34.9151 144.382 34.9431C144.382 35.1297 144.283 35.2834 144.087 35.4039C143.966 35.4781 143.849 35.515 143.737 35.5146C143.606 35.5141 143.476 35.4763 143.345 35.4011C143.243 35.326 143.163 35.2371 143.108 35.1342C143.052 35.0313 143.015 34.9145 142.997 34.7837C142.969 34.597 142.937 34.4055 142.9 34.2094C142.863 34.0132 142.845 33.8172 142.845 33.6212C142.837 33.1078 142.815 32.6457 142.779 32.2349C142.752 31.8241 142.72 31.4507 142.683 31.1145C142.656 30.7691 142.629 30.4516 142.602 30.1622C142.574 29.8634 142.561 29.5694 142.562 29.28L142.562 29.154C142.563 28.9674 142.474 28.8737 142.297 28.873L142.199 28.8726C141.872 28.8994 141.541 28.9308 141.205 28.9668C140.878 29.0029 140.551 29.0203 140.224 29.019C139.991 29.0181 139.758 29.0032 139.525 28.9743L139.455 28.9741C139.277 28.9734 139.188 29.0804 139.188 29.295C139.196 29.6777 139.2 30.0604 139.199 30.4431C139.198 30.8164 139.197 31.1991 139.196 31.5911L139.147 34.4889C139.146 34.8156 139.081 35.0487 138.95 35.1882C138.828 35.3277 138.604 35.4062 138.277 35.4236C137.866 35.45 137.46 35.4624 137.059 35.4609C136.947 35.4604 136.83 35.4553 136.709 35.4455C136.597 35.4451 136.485 35.4447 136.373 35.4442C136.018 35.4335 135.766 35.3532 135.617 35.2033C135.468 35.0627 135.39 34.8104 135.381 34.4464C135.373 34.1477 135.369 33.8537 135.369 33.5644C135.37 33.275 135.371 32.981 135.372 32.6824L135.42 30.0225C135.421 29.6119 135.413 29.2058 135.395 28.8044C135.377 28.403 135.355 27.9969 135.328 27.5862ZM147.058 35.4714C146.703 35.47 146.484 35.2825 146.401 34.9089C146.374 34.8154 146.36 34.722 146.36 34.6287L146.081 28.5936C146.082 28.0429 146.088 27.5109 146.098 26.9976C146.099 26.783 146.1 26.5636 146.1 26.3396C146.11 26.1157 146.115 25.901 146.116 25.6957C146.125 25.4811 146.131 25.2851 146.131 25.1078C146.131 24.9304 146.132 24.7764 146.132 24.6458L146.133 24.2818C146.117 23.3204 146.11 22.3637 146.112 21.4117C146.114 20.4597 146.116 19.531 146.119 18.6257C146.119 18.3737 146.166 18.1872 146.26 18.0662C146.363 17.9359 146.536 17.8573 146.779 17.8302C146.984 17.8123 147.185 17.7991 147.381 17.7905C147.577 17.7819 147.777 17.778 147.983 17.7788C148.197 17.7797 148.417 17.7852 148.641 17.7954C148.865 17.8056 149.084 17.8204 149.299 17.8399C149.541 17.8595 149.718 17.9349 149.83 18.066C149.942 18.1877 150.011 18.37 150.039 18.6128C150.048 18.6875 150.052 18.7715 150.052 18.8648C150.052 18.9488 150.052 19.0282 150.051 19.1028C150.049 20.1948 150.046 21.3055 150.043 22.4348C150.041 23.5548 150.043 24.6842 150.049 25.8229L150.048 26.1729C150.133 26.0985 150.184 26.0287 150.203 25.9634C150.231 25.8982 150.255 25.833 150.273 25.7677C150.659 24.6399 151.072 23.4701 151.514 22.2585C151.955 21.0375 152.425 19.812 152.923 18.5819C152.96 18.5074 152.993 18.4328 153.021 18.3583C153.049 18.2744 153.087 18.1952 153.134 18.1207C153.265 17.9345 153.447 17.8419 153.681 17.8428C153.709 17.8429 153.737 17.843 153.765 17.8431C153.802 17.8433 153.839 17.8527 153.876 17.8715C154.147 17.9753 154.282 18.1811 154.281 18.4891C154.281 18.5918 154.267 18.6851 154.238 18.7689C154.21 18.8528 154.177 18.9414 154.14 19.0346C153.614 20.3392 153.116 21.6346 152.646 22.9208C152.186 24.1977 151.754 25.4374 151.349 26.6399C151.246 26.9381 151.138 27.2317 151.025 27.5206C150.922 27.8002 150.809 28.0798 150.687 28.3593C150.64 28.4805 150.617 28.5784 150.616 28.6531C150.616 28.7464 150.653 28.8585 150.728 28.9895C151.248 29.9248 151.741 30.7761 152.206 31.5432C152.68 32.3197 153.182 33.0496 153.712 33.733C153.833 33.8921 153.982 34.0327 154.159 34.1547C154.206 34.1829 154.248 34.2111 154.285 34.2392C154.332 34.2767 154.378 34.3143 154.425 34.3518C154.583 34.4924 154.662 34.6607 154.662 34.8567C154.661 34.9873 154.624 35.1039 154.549 35.2062C154.427 35.3924 154.254 35.4851 154.03 35.4843C153.955 35.484 153.862 35.4603 153.75 35.4132C153.526 35.3096 153.326 35.1782 153.149 35.0189C152.972 34.8595 152.805 34.6815 152.646 34.4849C152.293 34.0076 151.944 33.5115 151.6 32.9969C151.256 32.4822 150.907 31.8742 150.554 31.1728C150.508 31.0793 150.452 30.9904 150.387 30.9062C150.322 30.8126 150.243 30.7003 150.15 30.5693C150.14 30.6999 150.135 30.8212 150.135 30.9332C150.135 31.0452 150.134 31.1572 150.134 31.2692C150.134 31.5119 150.138 31.7406 150.147 31.9553C150.165 32.1793 150.183 32.3987 150.201 32.6135C150.228 32.9309 150.251 33.2483 150.269 33.5657C150.287 33.8832 150.295 34.2005 150.294 34.5179L150.294 34.7419C150.275 34.9938 150.209 35.1755 150.096 35.2871C149.994 35.408 149.821 35.4727 149.578 35.4811C149.401 35.4898 149.223 35.4937 149.046 35.4931C148.869 35.4924 148.691 35.4917 148.514 35.491L147.058 35.4714ZM160.221 24.728C160.22 25.176 160.233 25.6194 160.26 26.0582C160.287 26.497 160.309 26.9404 160.327 27.3885C160.326 27.5098 160.35 27.5985 160.396 27.6547C160.443 27.7109 160.536 27.7486 160.676 27.7678C160.788 27.7776 160.9 27.7873 161.012 27.7971C161.124 27.7975 161.236 27.798 161.348 27.7984C161.684 27.7997 162.015 27.787 162.342 27.7602C162.678 27.7242 163.014 27.6928 163.35 27.6661C163.481 27.6573 163.584 27.6437 163.658 27.6253C163.733 27.5976 163.789 27.5605 163.826 27.5139C163.864 27.4674 163.887 27.4022 163.897 27.3182C163.907 27.2342 163.916 27.1223 163.926 26.9823C163.926 26.8797 163.926 26.777 163.927 26.6743C163.936 26.5624 163.941 26.455 163.941 26.3524C163.943 25.7364 163.921 25.125 163.876 24.5181C163.84 23.9113 163.799 23.2998 163.754 22.6836C163.727 22.4129 163.69 22.1467 163.644 21.8852C163.607 21.6237 163.557 21.3575 163.492 21.0866C163.418 20.7783 163.302 20.4932 163.144 20.2313C162.995 19.9694 162.819 19.7213 162.614 19.4872C162.484 19.328 162.339 19.2248 162.181 19.1775C162.022 19.1209 161.854 19.0923 161.677 19.0916C161.602 19.0913 161.527 19.0957 161.453 19.1047C161.378 19.1045 161.303 19.1088 161.229 19.1179C161.014 19.1357 160.869 19.2192 160.794 19.3682C160.719 19.5079 160.649 19.6523 160.583 19.8014C160.283 20.5376 160.131 21.3163 160.129 22.1377C160.129 22.1937 160.129 22.2497 160.129 22.3057C160.138 22.3617 160.143 22.4177 160.143 22.4737C160.151 22.8191 160.16 23.1645 160.168 23.5098C160.186 23.8459 160.204 24.1913 160.222 24.546L160.221 24.728ZM156.56 27.6679C156.525 26.7625 156.49 25.8663 156.455 24.9795C156.429 24.0928 156.408 23.2013 156.391 22.3053C156.391 22.2679 156.387 22.2306 156.377 22.1932C156.377 22.1559 156.377 22.1185 156.378 22.0812C156.388 21.5492 156.445 21.0315 156.549 20.5279C156.663 20.0243 156.832 19.5303 157.057 19.0458C157.376 18.319 157.918 17.9245 158.684 17.8621C159.029 17.8261 159.37 17.804 159.706 17.796C160.051 17.7787 160.397 17.7707 160.742 17.772C161.19 17.7737 161.638 17.7894 162.086 17.8192C162.403 17.8391 162.688 17.9242 162.939 18.0745C163.191 18.2154 163.419 18.4076 163.624 18.6511C163.931 19.0256 164.191 19.4233 164.405 19.8441C164.619 20.2556 164.762 20.7042 164.836 21.1898C164.964 22.0116 165.06 22.824 165.124 23.6269C165.197 24.4205 165.232 25.228 165.23 26.0493C165.229 26.3293 165.224 26.6093 165.214 26.8893C165.204 27.1599 165.189 27.4352 165.17 27.7151C165.151 27.967 165.131 28.219 165.112 28.4709C165.102 28.7135 165.097 28.9608 165.096 29.2128C165.096 29.5115 165.104 29.8055 165.122 30.0949C165.15 30.3751 165.186 30.6645 165.232 30.9634C165.259 31.3462 165.277 31.7149 165.286 32.0696C165.303 32.4337 165.321 32.7791 165.339 33.1058C165.357 33.4419 165.384 33.7593 165.421 34.0581C165.457 34.3569 165.513 34.6278 165.587 34.8708C165.605 34.9455 165.614 34.9969 165.614 35.0249C165.614 35.2115 165.516 35.3652 165.319 35.4857C165.198 35.5599 165.081 35.5968 164.969 35.5964C164.838 35.5959 164.708 35.5581 164.577 35.4829C164.475 35.4078 164.396 35.3189 164.34 35.216C164.284 35.1131 164.247 34.9963 164.229 34.8655C164.201 34.6788 164.169 34.4873 164.132 34.2912C164.095 34.095 164.077 33.8989 164.078 33.7029C164.069 33.1896 164.047 32.7275 164.011 32.3167C163.984 31.9059 163.952 31.5325 163.916 31.1963C163.888 30.8509 163.861 30.5334 163.834 30.244C163.807 29.9452 163.793 29.6512 163.794 29.3618L163.794 29.2358C163.795 29.0492 163.706 28.9555 163.529 28.9548L163.431 28.9544C163.104 28.9812 162.773 29.0126 162.437 29.0486C162.11 29.0847 161.783 29.1021 161.457 29.1008C161.223 29.0999 160.99 29.085 160.757 29.0561L160.687 29.0559C160.509 29.0552 160.421 29.1622 160.42 29.3768C160.428 29.7595 160.432 30.1422 160.431 30.5249C160.43 30.8982 160.429 31.2809 160.428 31.6729L160.379 34.5707C160.379 34.8974 160.313 35.1305 160.182 35.2699C160.06 35.4095 159.836 35.488 159.509 35.5054C159.098 35.5318 158.692 35.5442 158.291 35.5427C158.179 35.5422 158.062 35.5371 157.941 35.5273C157.829 35.5269 157.717 35.5265 157.605 35.526C157.251 35.5153 156.999 35.435 156.85 35.2851C156.701 35.1445 156.622 34.8922 156.614 34.5282C156.605 34.2295 156.601 33.9355 156.602 33.6461C156.602 33.3568 156.603 33.0628 156.604 32.7641L156.652 30.1043C156.653 29.6937 156.645 29.2876 156.627 28.8862C156.609 28.4848 156.587 28.0787 156.56 27.6679ZM171.02 35.5917C170.843 35.591 170.666 35.5903 170.488 35.5897C170.32 35.589 170.143 35.579 169.956 35.5596C169.732 35.5401 169.527 35.4646 169.341 35.3332C169.154 35.2112 168.982 35.0705 168.824 34.9112C168.414 34.4523 168.098 33.9611 167.875 33.4376C167.653 32.914 167.495 32.3581 167.403 31.7697C167.385 31.6017 167.367 31.4336 167.349 31.2655C167.34 31.0975 167.335 30.9295 167.336 30.7615C167.337 30.4348 167.351 30.1129 167.38 29.7956C167.418 29.4691 167.461 29.1426 167.509 28.8161C167.584 28.4151 167.79 28.2152 168.126 28.2165L168.182 28.2167C168.359 28.2267 168.504 28.2926 168.616 28.4144C168.727 28.5362 168.783 28.695 168.782 28.891L168.782 29.003C168.782 29.1337 168.772 29.2643 168.753 29.3949C168.743 29.5256 168.729 29.6562 168.71 29.7868C168.691 29.9454 168.672 30.0993 168.653 30.2486C168.643 30.3978 168.638 30.5518 168.638 30.7105C168.636 31.6345 168.858 32.5174 169.304 33.3591C169.462 33.6584 169.68 33.8879 169.96 34.0476C170.24 34.2074 170.529 34.2878 170.827 34.289C171.014 34.2897 171.196 34.2624 171.374 34.2071C171.551 34.1517 171.719 34.0591 171.878 33.929C171.981 33.8454 172.065 33.7431 172.131 33.622C172.197 33.5102 172.253 33.3938 172.3 33.2726C172.384 33.0303 172.446 32.7925 172.484 32.5593C172.521 32.3261 172.541 32.0882 172.541 31.8455C172.542 31.5469 172.515 31.2528 172.459 30.9632C172.413 30.6737 172.349 30.3795 172.265 30.0805C172.247 30.0151 172.219 29.959 172.182 29.9121C172.145 29.856 172.108 29.7999 172.07 29.7437C171.968 29.5753 171.852 29.4909 171.721 29.4904C171.646 29.4901 171.562 29.5178 171.469 29.5734C171.431 29.6013 171.389 29.6244 171.343 29.6429C171.305 29.6521 171.263 29.6659 171.216 29.6844C171.123 29.7027 171.053 29.7118 171.006 29.7116C170.764 29.7107 170.587 29.6167 170.475 29.4296C170.401 29.3079 170.364 29.1865 170.364 29.0651C170.364 28.9065 170.425 28.7527 170.547 28.6038C170.613 28.5388 170.687 28.4784 170.771 28.4227C171.071 28.2185 171.314 27.9768 171.501 27.6975C171.689 27.4182 171.839 27.1108 171.951 26.7752C172.036 26.5329 172.107 26.2158 172.164 25.824C172.23 25.4323 172.268 25.0451 172.279 24.6625L172.295 23.4445C172.296 23.1365 172.292 22.8285 172.284 22.5205C172.275 22.2031 172.257 21.8857 172.23 21.5683C172.212 21.2882 172.171 21.0127 172.106 20.7418C172.051 20.4709 171.981 20.2 171.898 19.929C171.759 19.5084 171.545 19.2976 171.255 19.2965C171.115 19.296 170.943 19.3373 170.737 19.4205C170.317 19.6056 169.971 19.8796 169.699 20.2425C169.39 20.6613 169.151 21.1037 168.982 21.5698C168.813 22.0358 168.7 22.5253 168.642 23.0385L168.628 23.2764C168.628 23.4071 168.637 23.5424 168.655 23.6825C168.683 23.8226 168.715 23.9581 168.752 24.0889C168.78 24.173 168.794 24.2571 168.793 24.3411C168.793 24.6211 168.657 24.8072 168.386 24.8995C168.311 24.9272 168.237 24.9409 168.162 24.9406C167.882 24.9395 167.677 24.7988 167.547 24.5183C167.398 24.1537 167.325 23.7661 167.326 23.3554C167.326 23.2901 167.326 23.2294 167.326 23.1734C167.326 23.1081 167.331 23.0427 167.341 22.9775C167.398 22.399 167.516 21.8441 167.695 21.3128C167.873 20.7815 168.122 20.2691 168.44 19.7757C168.796 19.217 169.222 18.78 169.717 18.4646C170.213 18.1398 170.797 17.9601 171.469 17.9253L172.505 17.9293L173.541 17.9473C173.989 17.9677 174.352 18.0904 174.632 18.3155C174.911 18.5313 175.135 18.8308 175.302 19.2141C175.571 19.8405 175.733 20.4898 175.787 21.162C175.824 21.4981 175.851 21.8342 175.869 22.1703C175.896 22.4971 175.909 22.8005 175.908 23.0805L175.908 23.3745C175.887 24.0744 175.862 24.7136 175.833 25.2922C175.813 25.8708 175.732 26.3838 175.591 26.8313C175.516 27.0643 175.436 27.2927 175.352 27.5163C175.276 27.7401 175.173 27.9543 175.042 28.1592C175.023 28.2057 175.005 28.2477 174.986 28.2849C174.967 28.3129 174.958 28.3455 174.958 28.3828C174.957 28.4388 174.985 28.4949 175.041 28.5512C175.283 28.7948 175.474 29.0475 175.613 29.3094C175.762 29.5713 175.873 29.847 175.947 30.1367C176.021 30.4263 176.067 30.7205 176.085 31.0192C176.103 31.3179 176.112 31.6213 176.111 31.9293L176.11 32.2653C176.108 32.9933 175.911 33.6925 175.517 34.363C175.199 34.9031 174.726 35.2513 174.101 35.4076C173.746 35.4995 173.396 35.5542 173.05 35.5715C172.714 35.5889 172.369 35.5969 172.014 35.5955L171.02 35.5917Z" fill="#FDA3C4"/>
</g>
<defs>
<filter id="filter0_d_5_3749" x="0.519043" y="0.5" width="224.941" height="59.9999" filterUnits="userSpaceOnUse" color-interpolation-filters="sRGB">
<feFlood flood-opacity="0" result="BackgroundImageFix"/>
<feColorMatrix in="SourceAlpha" type="matrix" values="0 0 0 0 0 0 0 0 0 0 0 0 0 0 0 0 0 0 127 0" result="hardAlpha"/>
<feOffset dy="2"/>
<feGaussianBlur stdDeviation="1"/>
<feColorMatrix type="matrix" values="0 0 0 0 0.992157 0 0 0 0 0.639216 0 0 0 0 0.768627 0 0 0 0.24 0"/>
<feBlend mode="normal" in2="BackgroundImageFix" result="effect1_dropShadow_5_3749"/>
<feBlend mode="normal" in="SourceGraphic" in2="effect1_dropShadow_5_3749" result="shape"/>
</filter>
</defs>
</svg>
