<svg width="217" height="44" viewBox="0 0 217 44" fill="none" xmlns="http://www.w3.org/2000/svg">
<rect x="0.5" y="0.5" width="216" height="43" fill="white" stroke="#FDA3C4"/>
<path d="M29.9094 31.3167C29.7134 31.3159 29.5175 31.3058 29.3215 31.2864C29.1349 31.2764 28.9436 31.2523 28.7477 31.2142C28.5331 31.1667 28.3793 31.0868 28.2863 30.9745C28.2025 30.8715 28.1516 30.7033 28.1335 30.4699C28.0521 29.3775 27.9848 28.2899 27.9314 27.2071C27.8874 26.1336 27.8667 25.0461 27.8693 23.9448L27.886 22.8669C27.907 21.9056 27.9186 20.949 27.9209 19.997C27.9326 19.0357 27.963 18.0651 28.012 17.0853C28.0314 16.7681 28.0509 16.4601 28.0703 16.1615C28.099 15.8536 28.1323 15.5738 28.1703 15.3219L28.1704 15.2659C28.1707 15.1446 28.1429 15.0558 28.0871 14.9996C28.0405 14.9434 27.952 14.9057 27.8213 14.8866C27.5787 14.8576 27.3408 14.8427 27.1075 14.8418C27.0235 14.8415 26.9348 14.8412 26.8415 14.8408C26.7575 14.8405 26.6734 14.8449 26.5894 14.8539C26.5054 14.8442 26.4215 14.8392 26.3375 14.8389C26.2535 14.8386 26.1741 14.8289 26.0995 14.81C25.9596 14.7721 25.8478 14.7017 25.764 14.5987C25.6803 14.4957 25.6386 14.3742 25.6389 14.2342L25.639 14.1922C25.6396 13.9402 25.7708 13.7494 26.0324 13.6197C26.1539 13.5735 26.2799 13.5507 26.4106 13.5512L26.5786 13.5658C27.5399 13.5788 28.4872 13.5918 29.4205 13.6047C30.3631 13.6083 31.3151 13.6119 32.2764 13.6156L33.2284 13.6192C33.3964 13.6199 33.583 13.6439 33.7883 13.6914C33.9468 13.7386 34.068 13.8184 34.1517 13.9308C34.2448 14.0338 34.2911 14.1553 34.2908 14.2953L34.2766 14.3932C34.2575 14.5425 34.1919 14.6683 34.0796 14.7705C33.9674 14.8634 33.8226 14.9142 33.6453 14.9228L32.4133 14.9181C32.3013 14.9177 32.2126 14.922 32.1472 14.9311C32.0912 14.9309 32.0492 14.9447 32.0211 14.9726C31.9931 15.0005 31.9696 15.0471 31.9508 15.1124C31.9413 15.1683 31.9318 15.2523 31.9222 15.3642C31.8175 16.2132 31.7501 17.0669 31.72 17.9255C31.6992 18.7748 31.6878 19.624 31.6858 20.4734L31.6802 22.7694C31.6701 23.096 31.6599 23.4273 31.6498 23.7633C31.649 24.0899 31.6482 24.4166 31.6474 24.7433C31.6463 25.1819 31.6499 25.6206 31.6582 26.0593C31.6665 26.4887 31.6888 26.9228 31.7251 27.3616C31.7613 27.819 31.7788 28.2718 31.7778 28.7198C31.7766 29.1771 31.8129 29.6346 31.8864 30.0922C31.8957 30.1202 31.9003 30.1483 31.9002 30.1763C31.9001 30.2136 31.9 30.2463 31.9 30.2743L31.8853 30.5402C31.8569 30.7361 31.7911 30.8898 31.6882 31.0015C31.5946 31.1131 31.4498 31.1825 31.2537 31.2098C31.0296 31.2463 30.8055 31.2734 30.5815 31.2912C30.3575 31.309 30.1334 31.3175 29.9094 31.3167ZM39.8091 20.4904C39.8081 20.9384 39.821 21.3818 39.8479 21.8206C39.8749 22.2594 39.8971 22.7028 39.9147 23.1508C39.9144 23.2722 39.9375 23.3609 39.984 23.4171C40.0306 23.4733 40.1238 23.511 40.2638 23.5302C40.3757 23.5399 40.4877 23.5497 40.5997 23.5595C40.7117 23.5599 40.8237 23.5603 40.9357 23.5607C41.2717 23.562 41.6031 23.5493 41.9298 23.5225C42.2659 23.4865 42.602 23.4551 42.938 23.4284C43.0687 23.4196 43.1714 23.406 43.2461 23.3876C43.3209 23.3599 43.3769 23.3227 43.4144 23.2762C43.4518 23.2297 43.4753 23.1645 43.4849 23.0805C43.4944 22.9965 43.504 22.8846 43.5137 22.7446C43.5139 22.6419 43.5142 22.5393 43.5144 22.4366C43.524 22.3246 43.529 22.2173 43.5292 22.1146C43.5307 21.4987 43.5089 20.8872 43.4637 20.2804C43.4278 19.6736 43.3873 19.0621 43.3421 18.4459C43.3148 18.1751 43.2781 17.909 43.2321 17.6475C43.1954 17.386 43.1447 17.1198 43.08 16.8489C43.0061 16.5406 42.8901 16.2555 42.7321 15.9936C42.5834 15.7317 42.4066 15.4837 42.2019 15.2495C42.0716 15.0904 41.9272 14.9871 41.7686 14.9399C41.6101 14.8833 41.4422 14.8546 41.2648 14.8539C41.1902 14.8537 41.1155 14.858 41.0408 14.8671C40.9661 14.8668 40.8915 14.8712 40.8168 14.8802C40.6021 14.8981 40.4572 14.9815 40.3822 15.1306C40.3072 15.2703 40.2368 15.4147 40.1711 15.5638C39.8707 16.3 39.7194 17.0787 39.7174 17.9001C39.7173 17.9561 39.7172 18.0121 39.717 18.0681C39.7262 18.1241 39.7308 18.1801 39.7306 18.2361C39.7391 18.5815 39.7476 18.9268 39.7561 19.2722C39.774 19.6083 39.7918 19.9537 39.8096 20.3084L39.8091 20.4904ZM36.148 23.4304C36.1129 22.525 36.0777 21.6288 36.0425 20.742C36.0167 19.8553 35.9955 18.9638 35.979 18.0678C35.9791 18.0304 35.9745 17.9931 35.9653 17.9557C35.9654 17.9184 35.9655 17.881 35.9656 17.8437C35.9762 17.3118 36.0335 16.794 36.1373 16.2904C36.2506 15.7868 36.4198 15.2928 36.6449 14.8083C36.964 14.0815 37.5063 13.6869 38.2718 13.6245C38.6172 13.5885 38.958 13.5665 39.294 13.5584C39.6394 13.5411 39.9847 13.533 40.33 13.5344C40.778 13.5361 41.226 13.5518 41.6739 13.5815C41.9912 13.6014 42.2757 13.6865 42.5273 13.8368C42.779 13.9777 43.0072 14.1699 43.2119 14.4134C43.519 14.7879 43.7794 15.1856 43.993 15.6064C44.2067 16.0179 44.3503 16.4664 44.4238 16.952C44.5524 17.7739 44.6485 18.5862 44.7118 19.3892C44.7846 20.1828 44.8199 20.9902 44.8179 21.8116C44.8173 22.0916 44.8119 22.3716 44.8019 22.6515C44.7919 22.9221 44.7772 23.1974 44.7579 23.4774C44.7386 23.7293 44.7193 23.9812 44.7001 24.2331C44.6901 24.4758 44.6849 24.7231 44.6843 24.9751C44.6835 25.2737 44.6922 25.5678 44.7101 25.8572C44.7374 26.1373 44.7741 26.4268 44.82 26.7256C44.8471 27.1084 44.8649 27.4771 44.8733 27.8318C44.8911 28.1959 44.9089 28.5413 44.9268 28.868C44.9447 29.2041 44.9719 29.5215 45.0085 29.8204C45.0451 30.1192 45.1004 30.39 45.1745 30.633C45.193 30.7077 45.2022 30.7591 45.2021 30.7871C45.2017 30.9738 45.1033 31.1274 44.907 31.248C44.7855 31.3222 44.6688 31.3591 44.5568 31.3586C44.4261 31.3581 44.2955 31.3203 44.165 31.2451C44.0625 31.1701 43.9834 31.0811 43.9277 30.9782C43.8719 30.8753 43.8349 30.7585 43.8165 30.6278C43.789 30.441 43.7568 30.2496 43.7199 30.0534C43.6831 29.8573 43.6649 29.6612 43.6654 29.4652C43.6573 28.9518 43.6351 28.4898 43.5987 28.079C43.5717 27.6682 43.54 27.2947 43.5034 26.9586C43.4763 26.6131 43.4491 26.2957 43.4218 26.0063C43.3945 25.7075 43.3812 25.4134 43.3819 25.1241L43.3822 24.9981C43.3827 24.8114 43.2942 24.7178 43.1169 24.7171L43.0189 24.7167C42.6922 24.7435 42.3607 24.7749 42.0247 24.8109C41.6979 24.847 41.3712 24.8644 41.0445 24.8632C40.8112 24.8623 40.5779 24.8474 40.3446 24.8185L40.2746 24.8182C40.0973 24.8176 40.0084 24.9245 40.0079 25.1392C40.0163 25.5219 40.02 25.9046 40.0191 26.2873C40.0182 26.6606 40.0172 27.0433 40.0163 27.4353L39.9672 30.3331C39.9664 30.6598 39.9005 30.8928 39.7695 31.0323C39.6479 31.1719 39.4237 31.2504 39.097 31.2678C38.6862 31.2942 38.2802 31.3066 37.8789 31.3051C37.7669 31.3047 37.6502 31.2996 37.5289 31.2898C37.4169 31.2893 37.3049 31.2889 37.1929 31.2885C36.8383 31.2778 36.5865 31.1975 36.4375 31.0476C36.2885 30.907 36.2098 30.6547 36.2013 30.2907C36.1927 29.992 36.1888 29.698 36.1895 29.4086C36.1902 29.1193 36.1909 28.8253 36.1916 28.5266L36.2401 25.8668C36.2411 25.4562 36.2327 25.0501 36.215 24.6487C36.1973 24.2473 36.175 23.8412 36.148 23.4304ZM51.1151 30.0677C51.7874 29.9303 52.3478 29.7551 52.7964 29.5421C53.2449 29.3385 53.5395 29.0736 53.6803 28.7475C53.746 28.6077 53.7883 28.4632 53.8073 28.314C53.8357 28.1647 53.8501 28.0155 53.8504 27.8661L53.8374 27.4741C53.7916 27.1192 53.7598 26.7738 53.7419 26.4377C53.7334 26.0923 53.7109 25.7423 53.6745 25.3874C53.6198 24.8179 53.2991 24.28 52.7124 23.7738C52.5634 23.6425 52.3629 23.5484 52.1111 23.4915C51.8685 23.4345 51.6073 23.3915 51.3274 23.3625C51.2901 23.353 51.2434 23.3481 51.1874 23.3479C51.0287 23.3473 50.9399 23.3983 50.921 23.5009L50.8641 23.8927C50.8356 24.0979 50.8071 24.3031 50.7786 24.5084C50.7501 24.7043 50.7356 24.9049 50.7351 25.1102C50.7349 25.2035 50.7393 25.3016 50.7484 25.4043C50.7575 25.4976 50.7713 25.591 50.7897 25.6844C50.7892 25.8804 50.8028 26.0765 50.8303 26.2726C50.8385 26.7393 50.8467 27.2153 50.8548 27.7007C50.863 28.186 50.8945 28.6575 50.9494 29.1151C50.9677 29.2645 50.986 29.4139 51.0043 29.5633C51.0226 29.722 51.0595 29.8901 51.1151 30.0677ZM49.4691 21.8293L49.5811 21.8298L50.995 21.8632C51.303 21.8737 51.5969 21.9028 51.8768 21.9506C52.1567 21.9983 52.4319 22.06 52.7023 22.1357C53.1314 22.2493 53.4717 22.4186 53.7231 22.6436C54.077 22.9623 54.3469 23.2993 54.5327 23.6547C54.7185 24.0101 54.8529 24.3699 54.936 24.7343C55.0099 25.0519 55.0465 25.3694 55.0457 25.6867C55.0543 25.9947 55.0909 26.3029 55.1555 26.6111L55.1395 27.4231L55.1523 27.9131L55.1658 28.1232C55.1653 28.3378 55.1414 28.5477 55.0943 28.7529C55.0471 28.9674 54.9859 29.1818 54.9107 29.3962C54.8168 29.6478 54.6482 29.8759 54.4051 30.0803C54.1712 30.2847 53.8954 30.4797 53.5776 30.6651C53.129 30.9247 52.6339 31.1142 52.0922 31.2334C51.5506 31.3527 50.9578 31.4111 50.3138 31.4086L50.0059 31.3935L48.326 31.331L47.906 31.3294C47.8407 31.3292 47.7707 31.3149 47.6961 31.2866C47.6308 31.2677 47.5609 31.2441 47.4863 31.2158C47.2345 31.1122 47.1045 30.8644 47.0961 30.4723C47.0434 29.0908 47.0001 27.7186 46.9661 26.3558C46.9484 25.9637 46.9353 25.567 46.927 25.1657L46.9134 24.9976C46.9043 24.8856 46.8999 24.7782 46.9002 24.6755C46.9005 24.5355 46.9055 24.4002 46.9152 24.2696C46.9075 23.5976 46.9044 22.9256 46.9061 22.2536C46.9073 21.7402 46.9086 21.2222 46.9098 20.6996C46.9204 20.1769 46.9404 19.631 46.9698 19.0618C46.9902 18.3339 47.0013 17.6152 47.003 16.9059C47.0048 16.1966 47.0112 15.4779 47.0223 14.75C47.0325 14.4047 47.0704 14.1481 47.1361 13.9804C47.1455 13.9618 47.1502 13.9431 47.1503 13.9244C47.2067 13.738 47.3283 13.6358 47.515 13.6178C48.1871 13.5831 48.8499 13.5529 49.5033 13.5274C50.166 13.4926 50.8334 13.4765 51.5054 13.4791C51.7574 13.48 52.0094 13.4857 52.2613 13.496C52.5133 13.4969 52.7793 13.5073 53.0593 13.527C53.4045 13.547 53.7499 13.5577 54.0952 13.559C54.4405 13.551 54.7905 13.5523 55.1452 13.563C55.3505 13.5731 55.4904 13.6203 55.5648 13.7046C55.6393 13.7795 55.6763 13.9244 55.6758 14.139L55.6454 15.1189C55.6263 15.2775 55.5887 15.3894 55.5326 15.4545C55.4764 15.5196 55.3737 15.5519 55.2243 15.5513L55.0423 15.5506C54.8557 15.5499 54.669 15.5538 54.4823 15.5625C54.2957 15.5618 54.109 15.561 53.9223 15.5603C53.8757 15.5601 53.7963 15.5598 53.6843 15.5594C53.5723 15.5497 53.437 15.5445 53.2784 15.5439C53.1291 15.534 52.9704 15.524 52.8024 15.514C52.6438 15.5041 52.4851 15.4942 52.3265 15.4842C52.1679 15.4743 52.0185 15.4691 51.8785 15.4685C51.7479 15.4587 51.6452 15.4536 51.5706 15.4533C51.3839 15.4526 51.2019 15.4566 51.0245 15.4653C50.8472 15.4646 50.6652 15.4732 50.4785 15.4912C50.4411 15.5004 50.3711 15.5048 50.2685 15.5044C50.1658 15.504 50.0585 15.5036 49.9465 15.5031L49.5825 15.5017C49.582 15.7071 49.5861 15.9124 49.595 16.1178C49.6034 16.5005 49.6071 16.8832 49.6062 17.2658C49.6059 17.3685 49.6008 17.5365 49.5909 17.7698C49.581 18.0031 49.5711 18.2737 49.561 18.5817C49.5602 18.8897 49.5501 19.2163 49.5306 19.5616C49.5204 19.9069 49.5103 20.2428 49.5001 20.5695C49.4994 20.8961 49.494 21.1948 49.484 21.4654C49.4837 21.5961 49.4787 21.7174 49.4691 21.8293ZM61.6961 13.672C61.948 13.673 62.2 13.688 62.4519 13.7169C62.7039 13.7365 62.9512 13.7655 63.1937 13.8038C63.6603 13.8615 64.0285 14.0403 64.2984 14.34C64.5777 14.6397 64.7822 15.0045 64.9118 15.4343C65.0229 15.7894 65.0967 16.149 65.1332 16.5132C65.179 16.868 65.2108 17.2275 65.2285 17.5916L65.4567 21.6384C65.4749 21.8159 65.4836 22.0912 65.4827 22.4646C65.4818 22.8286 65.4809 23.1926 65.48 23.5566C65.4793 23.8552 65.4787 24.1212 65.4781 24.3545C65.4776 24.5785 65.4725 24.7232 65.4631 24.7885C65.423 25.899 65.3692 26.9115 65.3017 27.8259C65.2435 28.7403 65.1713 29.6361 65.0851 30.5131C65.0471 30.8116 64.9626 31.0213 64.8316 31.1421C64.7007 31.263 64.4812 31.3321 64.1731 31.3496C63.9304 31.3673 63.683 31.3804 63.431 31.3888C63.1883 31.4065 62.9456 31.4149 62.703 31.414C62.6096 31.4136 62.521 31.4133 62.437 31.413C62.353 31.4126 62.2643 31.4076 62.171 31.398C61.8444 31.3687 61.6159 31.2978 61.4855 31.1853C61.3644 31.0822 61.3042 30.8906 61.3049 30.6106L61.3194 30.3867C61.3578 29.9482 61.3962 29.5143 61.4346 29.0851C61.473 28.6559 61.5067 28.2174 61.5358 27.7695C61.5745 27.2096 61.6085 26.6544 61.6379 26.1039C61.6672 25.544 61.6966 24.9841 61.7259 24.4242L61.7265 24.1722C61.7269 24.0229 61.7227 23.8362 61.7139 23.6122C61.7145 23.3788 61.7104 23.1455 61.7016 22.9121C61.7022 22.6694 61.6981 22.4408 61.6893 22.2261C61.6898 22.0021 61.6856 21.8247 61.6766 21.694C61.6316 20.9845 61.5913 20.2797 61.5557 19.5795C61.5201 18.8701 61.4798 18.1512 61.4349 17.4231C61.4167 17.227 61.3939 17.0309 61.3664 16.8348C61.3482 16.6387 61.3253 16.4426 61.2978 16.2465C61.2886 16.1718 61.2748 16.1018 61.2563 16.0364C61.2378 15.9616 61.2193 15.8869 61.2009 15.8121C61.1452 15.6533 61.0662 15.513 60.9639 15.3912C60.8709 15.2602 60.7404 15.1804 60.5725 15.1517L60.4745 15.1374C60.3252 15.1368 60.199 15.1876 60.0961 15.2899C60.0025 15.3922 59.9136 15.5086 59.8293 15.6389C59.6044 15.9927 59.4308 16.3654 59.3086 16.7569C59.1863 17.1485 59.0733 17.5447 58.9697 17.9456C58.781 18.7476 58.6484 19.5451 58.5719 20.3381C58.4953 21.1312 58.4466 21.9337 58.426 22.7456C58.4257 22.8669 58.4254 22.9883 58.4251 23.1096C58.4248 23.2216 58.4152 23.3382 58.3963 23.4595C58.3296 24.0006 58.2816 24.5464 58.2523 25.0969C58.223 25.6475 58.2029 26.2028 58.1922 26.7627C58.1816 27.3133 58.1755 27.8733 58.1742 28.4427C58.1728 29.012 58.1667 29.5906 58.1559 30.1786C58.1557 30.2813 58.1508 30.3792 58.1412 30.4725C58.141 30.5752 58.1314 30.6778 58.1125 30.7804C58.0654 30.9669 57.9857 31.1066 57.8735 31.1995C57.7706 31.3018 57.6398 31.3526 57.4811 31.352L57.3971 31.3517C57.0239 31.3036 56.8378 31.0649 56.8388 30.6356C56.8496 30.0663 56.8602 29.5296 56.8707 29.0257C56.8813 28.5311 56.8871 28.0411 56.8883 27.5557C56.8994 26.8464 56.9198 26.1419 56.9495 25.442C56.9792 24.7327 57.0322 24.0236 57.1086 23.3146C57.1565 22.8294 57.181 22.3488 57.1821 21.8728C57.1926 21.3875 57.2218 20.8976 57.2697 20.4032C57.3461 19.7034 57.4457 19.0085 57.5688 18.3183C57.7011 17.6281 57.8801 16.9475 58.1057 16.2763C58.1904 16.0153 58.2936 15.7684 58.4155 15.5355C58.5374 15.2933 58.6687 15.0558 58.8092 14.823C58.978 14.5343 59.1885 14.3158 59.4408 14.1674C59.7026 14.0097 59.9875 13.8942 60.2957 13.8207C60.5292 13.7656 60.7579 13.7291 60.982 13.7113C61.2154 13.6842 61.4534 13.6711 61.6961 13.672ZM72.5775 31.4237C72.3629 31.4136 72.1997 31.3523 72.088 31.2399C71.9762 31.1368 71.9206 30.9919 71.921 30.8052L71.9496 30.5953C71.9873 30.4368 72.0063 30.2782 72.0067 30.1195C72.0164 29.9609 72.0308 29.8023 72.0499 29.6437C72.069 29.4478 72.0837 29.1678 72.0939 28.8039C72.1135 28.4399 72.1284 28.0387 72.1388 27.6C72.1585 27.1708 72.169 26.7275 72.1701 26.2701C72.1805 25.8035 72.1862 25.3742 72.1872 24.9822C72.1975 24.5809 72.203 24.2356 72.2037 23.9462C72.2137 23.657 72.2189 23.4703 72.2191 23.3863C72.2201 22.957 72.2165 22.5043 72.2084 22.0283C72.2002 21.5429 72.1967 21.0482 72.198 20.5442L72.1989 20.1802C72.199 20.1242 72.1804 20.0915 72.1431 20.082C72.0963 20.1191 72.0636 20.1657 72.0448 20.2216C72.0353 20.2682 72.0212 20.3195 72.0024 20.3755C71.8141 21.0561 71.6257 21.7367 71.4374 22.4173C71.2491 23.0979 71.0514 23.7785 70.8445 24.4591C70.5716 25.3634 70.3174 26.2631 70.0819 27.1582C69.8464 28.0533 69.555 28.9015 69.2077 29.7028C69.1139 29.9171 69.0247 30.1268 68.9402 30.3318C68.8557 30.5368 68.7619 30.7371 68.6587 30.9327C68.5086 31.2402 68.2889 31.3933 67.9996 31.3922L67.7897 31.3634C67.3886 31.2779 67.1745 31.0064 67.1477 30.549C67.1478 30.493 67.1479 30.437 67.1481 30.381C67.1575 30.325 67.167 30.269 67.1765 30.2131C67.235 29.168 67.3029 28.1042 67.3802 27.0218C67.4669 25.9302 67.5536 24.8291 67.6403 23.7188C67.7173 22.7298 67.771 21.75 67.8014 20.7794C67.8318 19.7995 67.8482 18.8149 67.8506 17.8256C67.8515 17.4429 67.8524 17.0649 67.8533 16.6916C67.8542 16.3182 67.8504 15.9589 67.8419 15.6135L67.8309 14.3815C67.8407 14.1948 67.8971 14.0504 68 13.9481C68.1123 13.8365 68.2524 13.7718 68.4205 13.7537L68.4485 13.7538C68.6071 13.7544 68.7423 13.8016 68.8541 13.8954C68.9659 13.9891 69.0402 14.1248 69.0771 14.3022C69.0956 14.3956 69.1047 14.489 69.1044 14.5823C69.1042 14.6757 69.1087 14.769 69.1178 14.8624C69.1358 15.1051 69.1445 15.3665 69.1439 15.6465C69.1525 15.9172 69.1565 16.1926 69.1559 16.4726L69.1357 18.9925C69.1331 20.0658 69.0979 21.1297 69.03 22.1841C68.9621 23.2385 68.8895 24.2976 68.8123 25.3613C68.7933 25.4919 68.779 25.6272 68.7693 25.7671C68.7596 25.8978 68.7546 26.0331 68.7543 26.1731C68.7541 26.2571 68.7585 26.3458 68.7676 26.4391C68.7768 26.5232 68.7906 26.6119 68.809 26.7053C68.8372 26.6307 68.8654 26.5608 68.8935 26.4956C68.9217 26.4304 68.9452 26.3605 68.964 26.2859C69.124 25.7452 69.2793 25.2091 69.4299 24.6777C69.5899 24.1463 69.7452 23.6102 69.8958 23.0694C70.3007 21.6243 70.7008 20.1931 71.0963 18.776C71.5011 17.3495 71.8126 15.9087 72.0308 14.4535C72.0593 14.239 72.125 14.0806 72.2279 13.9783C72.3402 13.876 72.513 13.816 72.7464 13.7983C73.0171 13.7806 73.2831 13.7676 73.5445 13.7593C73.8058 13.751 74.0718 13.7473 74.3425 13.7484C74.7345 13.7499 75.1171 13.7653 75.4904 13.7947C75.7143 13.8143 75.8868 13.8896 76.0078 14.0207C76.1382 14.1519 76.2031 14.3248 76.2026 14.5395L76.2018 14.8615C76.2012 15.0948 76.2053 15.3282 76.2141 15.5615C76.2229 15.7856 76.227 16.0142 76.2264 16.2476L76.2257 16.5276C76.2061 16.9475 76.1957 17.3815 76.1946 17.8295C76.1935 18.2775 76.1924 18.7301 76.1913 19.1875C76.1901 19.6915 76.1888 20.1908 76.1876 20.6855C76.1958 21.1708 76.2086 21.6655 76.226 22.1696L76.2384 22.8277L76.2379 23.0517C76.2375 23.2103 76.2323 23.4296 76.2223 23.7096C76.2216 23.9803 76.2162 24.2836 76.2061 24.6195C76.1959 24.9555 76.1857 25.3148 76.1755 25.6974C76.1652 26.0707 76.155 26.4394 76.1448 26.8033C76.1439 27.158 76.1384 27.494 76.1283 27.8113C76.1182 28.1379 76.1129 28.4132 76.1123 28.6372C76.1116 28.9265 76.0969 29.2112 76.0682 29.4911C76.0395 29.7803 76.0155 30.0695 75.9961 30.3588C75.9957 30.5268 75.9673 30.6947 75.9109 30.8625C75.8074 31.2167 75.5736 31.3932 75.2096 31.3918C74.7709 31.3994 74.3323 31.4071 73.8936 31.4148C73.4642 31.4224 73.0255 31.4254 72.5775 31.4237ZM88.3423 31.414C87.9689 31.4312 87.6002 31.4438 87.2362 31.4517C86.6388 31.4775 86.0367 31.4938 85.43 31.5008L85.178 31.4999C84.8234 31.4985 84.4641 31.4878 84.1001 31.4678C83.7455 31.4477 83.3909 31.4277 83.0363 31.4077C82.8496 31.3883 82.663 31.3783 82.4763 31.3776C82.299 31.3769 82.117 31.3762 81.9303 31.3755L80.5303 31.3841C80.213 31.3829 79.9003 31.377 79.5924 31.3665C79.2844 31.356 78.9764 31.3268 78.6686 31.279C78.5006 31.2597 78.356 31.2311 78.2348 31.1933C78.1229 31.1556 78.0297 31.0992 77.9552 31.0243C77.89 30.9587 77.8389 30.8698 77.8018 30.7577C77.7648 30.6455 77.7371 30.5054 77.7189 30.3374C77.6731 29.9639 77.646 29.5904 77.6376 29.217C77.6291 28.853 77.6254 28.4843 77.6263 28.111L77.6423 21.503C77.6452 20.3084 77.6667 19.1604 77.7067 18.0592C77.7467 16.9581 77.7961 15.8102 77.855 14.6158C77.8744 14.3172 77.9403 14.1074 78.0526 13.9865C78.1742 13.8657 78.3844 13.7965 78.6831 13.7789L79.3831 13.7676C79.6258 13.7686 79.8637 13.7788 80.097 13.7984C80.3303 13.8086 80.5636 13.8328 80.7969 13.871C81.1047 13.9282 81.3098 14.0223 81.4122 14.1534C81.5239 14.2845 81.584 14.504 81.5926 14.8121L81.5923 14.9241C81.5915 15.2414 81.5721 15.554 81.534 15.8619C81.5053 16.1697 81.4905 16.473 81.4898 16.7717L81.489 17.0937C81.4882 17.4297 81.4828 17.7563 81.4726 18.0736C81.4719 18.3816 81.4665 18.6849 81.4564 18.9836C81.4464 19.2822 81.4363 19.5902 81.4262 19.9075C81.4254 20.2155 81.4247 20.5375 81.4238 20.8735C81.4232 21.1255 81.4226 21.3775 81.422 21.6295C81.4214 21.8721 81.4302 22.1195 81.4482 22.3716L81.4607 22.9876C81.4601 23.2396 81.4548 23.4916 81.4449 23.7436C81.4349 23.9955 81.425 24.2475 81.415 24.4995C81.3955 24.8727 81.3852 25.2413 81.3844 25.6053C81.3835 25.9693 81.3826 26.338 81.3817 26.7113L81.3892 29.3714C81.389 29.4367 81.3936 29.4974 81.4028 29.5534C81.4119 29.6188 81.4164 29.6888 81.4163 29.7635C81.4251 29.9782 81.5415 30.086 81.7655 30.0868L82.9694 30.1054C83.3801 30.107 83.7861 30.1226 84.1873 30.1521C84.5979 30.191 85.0085 30.2112 85.4192 30.2128L85.6852 30.2138C85.9092 30.2053 86.0214 30.1124 86.0218 29.9351L86.022 29.8511C85.9764 29.4216 85.9588 28.9922 85.9692 28.5629C85.9796 28.1336 85.9759 27.7042 85.9583 27.2748L85.9597 26.7008C85.9612 26.0755 85.9767 25.4549 86.0062 24.839C86.0357 24.2138 86.0513 23.5885 86.0528 22.9632L86.0405 22.2351L86.0173 20.261C86.0197 19.2717 86.036 18.3337 86.0662 17.4472C86.1057 16.5513 86.15 15.6135 86.199 14.6337C86.209 14.363 86.2701 14.1673 86.3824 14.0464C86.4948 13.9161 86.6769 13.8422 86.929 13.8245C87.069 13.8157 87.2043 13.8115 87.335 13.812C87.475 13.8032 87.615 13.7991 87.755 13.7996C88.2684 13.8016 88.7769 13.8455 89.2807 13.9315C89.5046 13.979 89.6677 14.0636 89.7701 14.1853C89.8725 14.2977 89.9281 14.4706 89.9368 14.704L89.9355 15.264C89.9066 15.6185 89.8825 15.9591 89.863 16.2857C89.8529 16.603 89.8428 16.925 89.8327 17.2516C89.8319 17.5689 89.8264 17.8909 89.8163 18.2175C89.8062 18.5442 89.796 18.8848 89.7858 19.2394L89.7546 20.5693C89.7534 21.0826 89.7568 21.596 89.7649 22.1094C89.7823 22.6228 89.7904 23.1408 89.7891 23.6635L89.7729 24.5454C89.7531 25.04 89.7379 25.5299 89.7274 26.0152C89.7169 26.5005 89.711 26.9905 89.7098 27.4852C89.7086 27.9798 89.7167 28.4699 89.7342 28.9553L89.734 29.0393L90.5697 30.8065C90.5976 30.8626 90.6208 30.9187 90.6393 30.9748C90.6672 31.0402 90.6904 31.1009 90.7089 31.157C90.7367 31.2318 90.7505 31.3158 90.7503 31.4092C90.7498 31.6145 90.6607 31.7915 90.483 31.9402C90.1463 32.2282 89.8329 32.5303 89.5428 32.8466C89.2527 33.1628 88.9579 33.479 88.6585 33.7952C88.4058 34.0836 88.1484 34.3579 87.8865 34.6183C87.7368 34.7763 87.5872 34.8551 87.4379 34.8545C87.3259 34.8541 87.2234 34.8024 87.1303 34.6994C87.0279 34.587 86.9768 34.4701 86.9771 34.3488C86.9775 34.1901 87.0478 34.0504 87.1881 33.9296C87.4127 33.7158 87.6232 33.4926 87.8198 33.26C88.0256 33.0368 88.2409 32.8136 88.4654 32.5905C88.587 32.4696 88.648 32.3438 88.6483 32.2131C88.6485 32.1198 88.6254 32.0217 88.579 31.9189C88.4954 31.7506 88.4165 31.5823 88.3423 31.414ZM95.4533 20.7031C95.4522 21.1511 95.4651 21.5945 95.492 22.0332C95.519 22.472 95.5412 22.9154 95.5588 23.3635C95.5585 23.4848 95.5816 23.5736 95.6282 23.6298C95.6747 23.6859 95.7679 23.7236 95.9079 23.7428C96.0199 23.7526 96.1318 23.7624 96.2438 23.7721C96.3558 23.7726 96.4678 23.773 96.5798 23.7734C96.9158 23.7747 97.2472 23.762 97.5739 23.7352C97.91 23.6992 98.2461 23.6678 98.5821 23.6411C98.7128 23.6322 98.8155 23.6186 98.8902 23.6002C98.965 23.5725 99.0211 23.5354 99.0585 23.4889C99.096 23.4424 99.1195 23.3771 99.129 23.2931C99.1385 23.2092 99.1481 23.0972 99.1578 22.9573C99.1581 22.8546 99.1583 22.7519 99.1586 22.6493C99.1682 22.5373 99.1731 22.43 99.1733 22.3273C99.1748 21.7113 99.153 21.0999 99.1078 20.493C99.0719 19.8862 99.0314 19.2747 98.9862 18.6586C98.9589 18.3878 98.9222 18.1217 98.8762 17.8601C98.8395 17.5987 98.7888 17.3325 98.7241 17.0616C98.6502 16.7533 98.5342 16.4682 98.3762 16.2062C98.2275 15.9443 98.0508 15.6963 97.846 15.4622C97.7157 15.303 97.5713 15.1998 97.4128 15.1525C97.2542 15.0959 97.0863 15.0673 96.909 15.0666C96.8343 15.0663 96.7596 15.0707 96.6849 15.0798C96.6103 15.0795 96.5356 15.0839 96.4609 15.0929C96.2462 15.1107 96.1013 15.1942 96.0263 15.3432C95.9513 15.483 95.8809 15.6274 95.8152 15.7764C95.5148 16.5126 95.3636 17.2914 95.3616 18.1127C95.3614 18.1687 95.3613 18.2247 95.3612 18.2807C95.3704 18.3368 95.3749 18.3928 95.3747 18.4488C95.3832 18.7941 95.3917 19.1395 95.4002 19.4849C95.4181 19.8209 95.4359 20.1663 95.4537 20.5211L95.4533 20.7031ZM91.7921 23.6431C91.757 22.7376 91.7218 21.8415 91.6867 20.9547C91.6608 20.0679 91.6396 19.1765 91.6231 18.2804C91.6232 18.2431 91.6187 18.2057 91.6094 18.1684C91.6095 18.131 91.6096 18.0937 91.6097 18.0564C91.6203 17.5244 91.6776 17.0066 91.7815 16.503C91.8947 15.9995 92.0639 15.5054 92.2891 15.021C92.6082 14.2942 93.1505 13.8996 93.9159 13.8372C94.2614 13.8012 94.6021 13.7791 94.9381 13.7711C95.2835 13.7537 95.6288 13.7457 95.9742 13.747C96.4222 13.7487 96.8701 13.7645 97.3181 13.7942C97.6353 13.814 97.9198 13.8991 98.1714 14.0494C98.4231 14.1904 98.6513 14.3826 98.856 14.626C99.1631 15.0006 99.4235 15.3982 99.6371 15.819C99.8508 16.2305 99.9944 16.6791 100.068 17.1647C100.197 17.9865 100.293 18.7989 100.356 19.6018C100.429 20.3954 100.464 21.2029 100.462 22.0242C100.461 22.3042 100.456 22.5842 100.446 22.8642C100.436 23.1348 100.421 23.4101 100.402 23.69C100.383 23.9419 100.363 24.1939 100.344 24.4458C100.334 24.6884 100.329 24.9357 100.328 25.1877C100.328 25.4864 100.336 25.7804 100.354 26.0698C100.382 26.35 100.418 26.6394 100.464 26.9383C100.491 27.321 100.509 27.6898 100.517 28.0445C100.535 28.4086 100.553 28.754 100.571 29.0807C100.589 29.4168 100.616 29.7342 100.653 30.033C100.689 30.3318 100.745 30.6027 100.819 30.8457C100.837 30.9204 100.846 30.9718 100.846 30.9998C100.846 31.1864 100.747 31.3401 100.551 31.4606C100.43 31.5348 100.313 31.5717 100.201 31.5713C100.07 31.5708 99.9396 31.533 99.8092 31.4578C99.7067 31.3827 99.6276 31.2938 99.5718 31.1909C99.5161 31.088 99.479 30.9712 99.4607 30.8405C99.4331 30.6537 99.4009 30.4622 99.3641 30.2661C99.3272 30.0699 99.309 29.8739 99.3095 29.6779C99.3014 29.1645 99.2792 28.7024 99.2428 28.2916C99.2158 27.8808 99.1841 27.5074 99.1476 27.1712C99.1204 26.8258 99.0932 26.5084 99.0659 26.2189C99.0386 25.9202 99.0253 25.6261 99.026 25.3368L99.0263 25.2108C99.0268 25.0241 98.9383 24.9304 98.761 24.9298L98.663 24.9294C98.3363 24.9561 98.0049 24.9875 97.6688 25.0236C97.342 25.0597 97.0153 25.0771 96.6887 25.0758C96.4553 25.0749 96.222 25.06 95.9888 25.0312L95.9188 25.0309C95.7414 25.0302 95.6525 25.1372 95.652 25.3519C95.6604 25.7346 95.6641 26.1173 95.6632 26.4999C95.6623 26.8733 95.6614 27.2559 95.6604 27.6479L95.6114 30.5458C95.6106 30.8724 95.5447 31.1055 95.4137 31.245C95.292 31.3845 95.0678 31.463 94.7411 31.4804C94.3304 31.5069 93.9243 31.5193 93.523 31.5178C93.411 31.5173 93.2943 31.5122 93.173 31.5024C93.061 31.502 92.949 31.5016 92.837 31.5012C92.4824 31.4905 92.2306 31.4102 92.0816 31.2603C91.9326 31.1197 91.8539 30.8674 91.8455 30.5034C91.8369 30.2047 91.8329 29.9106 91.8336 29.6213C91.8343 29.332 91.835 29.038 91.8357 28.7393L91.8842 26.0795C91.8852 25.6688 91.8769 25.2628 91.8592 24.8614C91.8415 24.46 91.8191 24.0539 91.7921 23.6431ZM113.999 23.98C114.055 23.9802 114.115 23.9758 114.181 23.9667C114.255 23.9576 114.339 23.9439 114.433 23.9256C114.461 23.9257 114.489 23.9212 114.517 23.912C114.545 23.9027 114.568 23.8935 114.587 23.8842C115.091 23.7648 115.465 23.5422 115.708 23.2165C115.961 22.8908 116.121 22.4901 116.187 22.0143C116.235 21.7438 116.268 21.4873 116.287 21.2447C116.316 20.9928 116.34 20.8016 116.359 20.671C116.368 20.6243 116.373 20.5777 116.373 20.531C116.373 20.4844 116.373 20.4377 116.373 20.391C116.373 20.2977 116.369 20.2137 116.36 20.139C116.36 20.055 116.36 19.9803 116.36 19.915C116.316 18.8601 116.132 17.8374 115.808 16.8468C115.678 16.4544 115.483 16.1409 115.222 15.9066C114.961 15.6629 114.649 15.4704 114.286 15.329C114.211 15.3101 114.136 15.2958 114.062 15.2862C113.987 15.2672 113.912 15.2483 113.838 15.2293L113.726 15.2149C113.567 15.2143 113.488 15.3026 113.487 15.48L113.5 16.082C113.517 16.7261 113.529 17.3561 113.537 17.9722C113.554 18.5789 113.572 19.125 113.589 19.6104C113.588 20.0584 113.587 20.6044 113.585 21.2484C113.584 21.883 113.587 22.5411 113.594 23.2224C113.594 23.5118 113.617 23.7125 113.663 23.8247C113.709 23.9275 113.821 23.9793 113.999 23.98ZM110.802 31.5838C110.755 31.5836 110.704 31.5788 110.648 31.5692C110.601 31.569 110.555 31.5642 110.508 31.5547C109.995 31.4687 109.734 31.1644 109.726 30.6417C109.7 30.0443 109.683 29.4235 109.675 28.7795C109.667 28.1448 109.659 27.5054 109.652 26.8614C109.653 26.2174 109.655 25.5781 109.656 24.9434C109.658 24.2994 109.659 23.6834 109.661 23.0954L109.666 21.0934C109.667 20.6174 109.663 20.1507 109.655 19.6934C109.656 19.2267 109.648 18.76 109.63 18.2932C109.613 17.7798 109.6 17.2665 109.592 16.7531C109.593 16.2398 109.585 15.7264 109.568 15.213L109.568 14.989C109.579 14.597 109.654 14.3266 109.794 14.1779C109.944 14.0198 110.215 13.9275 110.607 13.901L111.139 13.889L112.175 13.9069L113.295 13.9112L113.855 13.9414C114.648 14.0377 115.315 14.2923 115.855 14.705C116.405 15.1178 116.805 15.7167 117.055 16.5016C117.416 17.6323 117.623 18.7811 117.676 19.948L117.676 20.074C117.676 20.1487 117.676 20.2607 117.675 20.41C117.675 20.55 117.665 20.7413 117.646 20.9839C117.627 21.1705 117.598 21.3944 117.56 21.6556C117.522 21.9168 117.48 22.1826 117.432 22.4531C117.366 22.7982 117.249 23.1384 117.08 23.4738C116.92 23.7998 116.7 24.093 116.42 24.3532C116.148 24.6135 115.816 24.8269 115.424 24.9934C115.032 25.1506 114.579 25.2329 114.065 25.2402C113.879 25.2395 113.762 25.2531 113.715 25.2809C113.669 25.3087 113.645 25.3926 113.645 25.5326L113.642 26.6386C113.641 26.9653 113.636 27.2966 113.626 27.6326C113.625 27.9686 113.624 28.3046 113.623 28.6406C113.623 28.7899 113.622 28.9392 113.622 29.0886C113.622 29.2379 113.626 29.3873 113.635 29.5366L113.688 30.7968C113.687 31.1608 113.5 31.3888 113.126 31.4807C113.052 31.4991 112.977 31.5081 112.902 31.5078C112.837 31.5169 112.767 31.526 112.692 31.535C112.393 31.5526 112.095 31.5608 111.796 31.5596C111.497 31.5678 111.199 31.576 110.9 31.5842L110.802 31.5838ZM123.207 20.8092C123.206 21.2572 123.219 21.7005 123.246 22.1393C123.273 22.5781 123.295 23.0215 123.313 23.4696C123.312 23.5909 123.335 23.6797 123.382 23.7358C123.428 23.792 123.522 23.8297 123.662 23.8489C123.774 23.8587 123.886 23.8684 123.998 23.8782C124.11 23.8786 124.222 23.8791 124.334 23.8795C124.67 23.8808 125.001 23.868 125.328 23.8413C125.664 23.8052 126 23.7738 126.336 23.7471C126.467 23.7383 126.569 23.7247 126.644 23.7063C126.719 23.6786 126.775 23.6415 126.812 23.5949C126.85 23.5484 126.873 23.4832 126.883 23.3992C126.892 23.3153 126.902 23.2033 126.912 23.0633C126.912 22.9607 126.912 22.858 126.912 22.7553C126.922 22.6434 126.927 22.536 126.927 22.4334C126.929 21.8174 126.907 21.206 126.861 20.5991C126.826 19.9923 126.785 19.3808 126.74 18.7646C126.713 18.4939 126.676 18.2277 126.63 17.9662C126.593 17.7047 126.543 17.4385 126.478 17.1676C126.404 16.8593 126.288 16.5742 126.13 16.3123C125.981 16.0504 125.804 15.8024 125.6 15.5683C125.469 15.4091 125.325 15.3059 125.166 15.2586C125.008 15.202 124.84 15.1734 124.663 15.1727C124.588 15.1724 124.513 15.1768 124.439 15.1858C124.364 15.1855 124.289 15.1899 124.215 15.199C124 15.2168 123.855 15.3003 123.78 15.4493C123.705 15.589 123.635 15.7334 123.569 15.8825C123.268 16.6187 123.117 17.3975 123.115 18.2188C123.115 18.2748 123.115 18.3308 123.115 18.3868C123.124 18.4428 123.129 18.4988 123.128 18.5548C123.137 18.9002 123.145 19.2456 123.154 19.5909C123.172 19.927 123.19 20.2724 123.207 20.6272L123.207 20.8092ZM119.546 23.7492C119.511 22.8437 119.476 21.9476 119.44 21.0608C119.415 20.174 119.393 19.2826 119.377 18.3865C119.377 18.3492 119.372 18.3118 119.363 18.2744C119.363 18.2371 119.363 18.1998 119.363 18.1624C119.374 17.6305 119.431 17.1127 119.535 16.6091C119.648 16.1055 119.818 15.6115 120.043 15.127C120.362 14.4002 120.904 14.0056 121.67 13.9432C122.015 13.9072 122.356 13.8852 122.692 13.8771C123.037 13.8598 123.383 13.8518 123.728 13.8531C124.176 13.8548 124.624 13.8705 125.072 13.9002C125.389 13.9201 125.674 14.0052 125.925 14.1555C126.177 14.2965 126.405 14.4887 126.61 14.7321C126.917 15.1066 127.177 15.5043 127.391 15.9251C127.605 16.3366 127.748 16.7851 127.822 17.2708C127.95 18.0926 128.046 18.905 128.11 19.7079C128.182 20.5015 128.218 21.309 128.216 22.1303C128.215 22.4103 128.21 22.6903 128.2 22.9702C128.19 23.2409 128.175 23.5162 128.156 23.7961C128.136 24.048 128.117 24.2999 128.098 24.5519C128.088 24.7945 128.083 25.0418 128.082 25.2938C128.081 25.5925 128.09 25.8865 128.108 26.1759C128.135 26.456 128.172 26.7455 128.218 27.0443C128.245 27.4271 128.263 27.7959 128.271 28.1506C128.289 28.5146 128.307 28.86 128.325 29.1868C128.342 29.5228 128.37 29.8403 128.406 30.1391C128.443 30.4379 128.498 30.7088 128.572 30.9517C128.591 31.0265 128.6 31.0778 128.6 31.1058C128.6 31.2925 128.501 31.4461 128.305 31.5667C128.183 31.6409 128.067 31.6778 127.955 31.6774C127.824 31.6769 127.693 31.639 127.563 31.5639C127.46 31.4888 127.381 31.3998 127.326 31.297C127.27 31.1941 127.233 31.0773 127.214 30.9465C127.187 30.7598 127.155 30.5683 127.118 30.3722C127.081 30.176 127.063 29.9799 127.063 29.7839C127.055 29.2706 127.033 28.8085 126.997 28.3977C126.97 27.9869 126.938 27.6135 126.901 27.2773C126.874 26.9319 126.847 26.6144 126.82 26.325C126.792 26.0262 126.779 25.7322 126.78 25.4428L126.78 25.3168C126.78 25.1302 126.692 25.0365 126.515 25.0358L126.417 25.0354C126.09 25.0622 125.759 25.0936 125.422 25.1296C125.096 25.1657 124.769 25.1832 124.442 25.1819C124.209 25.181 123.976 25.1661 123.742 25.1372L123.672 25.137C123.495 25.1363 123.406 25.2433 123.406 25.4579C123.414 25.8406 123.418 26.2233 123.417 26.606C123.416 26.9793 123.415 27.362 123.414 27.754L123.365 30.6518C123.364 30.9785 123.298 31.2116 123.167 31.3511C123.046 31.4906 122.822 31.5691 122.495 31.5865C122.084 31.6129 121.678 31.6254 121.277 31.6238C121.165 31.6234 121.048 31.6183 120.927 31.6085C120.815 31.6081 120.703 31.6077 120.591 31.6072C120.236 31.5965 119.984 31.5162 119.835 31.3663C119.686 31.2258 119.608 30.9735 119.599 30.6094C119.591 30.3107 119.587 30.0167 119.587 29.7274C119.588 29.438 119.589 29.144 119.589 28.8454L119.638 26.1855C119.639 25.7749 119.631 25.3688 119.613 24.9674C119.595 24.566 119.573 24.16 119.546 23.7492ZM134.006 31.6725C133.828 31.6718 133.651 31.6711 133.474 31.6705C133.306 31.6698 133.128 31.6598 132.942 31.6404C132.718 31.6209 132.513 31.5455 132.326 31.4141C132.14 31.292 131.968 31.1514 131.809 30.9921C131.4 30.5332 131.084 30.042 130.861 29.5185C130.638 28.9949 130.481 28.439 130.389 27.8506C130.371 27.6826 130.353 27.5145 130.334 27.3464C130.325 27.1784 130.321 27.0104 130.322 26.8424C130.322 26.5157 130.337 26.1938 130.366 25.8765C130.404 25.55 130.447 25.2235 130.494 24.897C130.57 24.496 130.776 24.2961 131.112 24.2974L131.168 24.2976C131.345 24.3076 131.49 24.3735 131.601 24.4953C131.713 24.617 131.769 24.7759 131.768 24.9719L131.768 25.0839C131.767 25.2146 131.758 25.3452 131.739 25.4758C131.729 25.6064 131.715 25.737 131.696 25.8676C131.677 26.0262 131.658 26.1802 131.639 26.3294C131.629 26.4787 131.624 26.6327 131.624 26.7914C131.621 27.7154 131.843 28.5982 132.289 29.4399C132.447 29.7392 132.666 29.9687 132.946 30.1284C133.225 30.2882 133.514 30.3686 133.813 30.3697C134 30.3705 134.182 30.3432 134.359 30.2878C134.537 30.2325 134.705 30.1398 134.864 30.0098C134.967 29.9262 135.051 29.8238 135.117 29.7027C135.182 29.591 135.238 29.4745 135.285 29.3534C135.37 29.111 135.431 28.8733 135.469 28.6401C135.507 28.4069 135.526 28.1689 135.527 27.9263C135.528 27.6276 135.5 27.3335 135.445 27.044C135.399 26.7545 135.334 26.4602 135.251 26.1612C135.233 26.0958 135.205 26.0397 135.168 25.9929C135.13 25.9368 135.093 25.8806 135.056 25.8245C134.954 25.6561 134.837 25.5716 134.707 25.5711C134.632 25.5708 134.548 25.5985 134.454 25.6542C134.417 25.682 134.375 25.7052 134.328 25.7237C134.291 25.7329 134.249 25.7467 134.202 25.7652C134.109 25.7835 134.039 25.7926 133.992 25.7924C133.749 25.7915 133.572 25.6975 133.461 25.5104C133.386 25.3888 133.349 25.2673 133.35 25.1459C133.35 24.9873 133.411 24.8335 133.533 24.6846C133.598 24.6196 133.673 24.5592 133.757 24.5035C134.056 24.2993 134.3 24.0576 134.487 23.7783C134.674 23.499 134.824 23.1916 134.937 22.856C135.022 22.6137 135.093 22.2966 135.15 21.9048C135.216 21.5131 135.254 21.1259 135.264 20.7432L135.281 19.5253C135.282 19.2173 135.278 18.9093 135.27 18.6012C135.261 18.2839 135.243 17.9665 135.216 17.649C135.198 17.369 135.157 17.0935 135.092 16.8225C135.037 16.5517 134.967 16.2807 134.884 16.0097C134.745 15.5892 134.531 15.3784 134.241 15.3773C134.101 15.3768 133.929 15.4181 133.723 15.5013C133.303 15.6864 132.957 15.9604 132.685 16.3233C132.376 16.7422 132.137 17.1846 131.968 17.6506C131.799 18.1166 131.686 18.6062 131.628 19.1193L131.614 19.3573C131.613 19.4879 131.622 19.6233 131.641 19.7634C131.668 19.9035 131.701 20.0389 131.738 20.1698C131.766 20.2539 131.779 20.3379 131.779 20.4219C131.778 20.7019 131.643 20.8881 131.372 20.9804C131.297 21.0081 131.222 21.0218 131.148 21.0215C130.868 21.0204 130.663 20.8796 130.533 20.5991C130.384 20.2346 130.31 19.847 130.311 19.4363C130.312 19.371 130.312 19.3103 130.312 19.2543C130.312 19.189 130.317 19.1236 130.326 19.0584C130.384 18.4799 130.502 17.925 130.68 17.3937C130.859 16.8624 131.108 16.35 131.426 15.8565C131.782 15.2979 132.208 14.8608 132.703 14.5454C133.199 14.2206 133.783 14.0409 134.455 14.0061L135.491 14.0101L136.527 14.028C136.975 14.0484 137.338 14.1711 137.618 14.3962C137.897 14.6119 138.121 14.9114 138.288 15.2948C138.557 15.9211 138.718 16.5704 138.773 17.2426C138.809 17.5788 138.837 17.9149 138.854 18.2509C138.882 18.5777 138.895 18.8811 138.894 19.1611L138.893 19.4551C138.873 20.155 138.848 20.7943 138.819 21.3728C138.799 21.9514 138.718 22.4644 138.577 22.9119C138.502 23.145 138.422 23.3733 138.337 23.597C138.262 23.8207 138.159 24.035 138.028 24.2398C138.009 24.2864 137.99 24.3283 137.972 24.3656C137.953 24.3935 137.943 24.4262 137.943 24.4635C137.943 24.5195 137.971 24.5756 138.027 24.6318C138.269 24.8754 138.46 25.1281 138.599 25.39C138.748 25.6519 138.859 25.9277 138.933 26.2173C139.007 26.5069 139.053 26.8011 139.071 27.0998C139.089 27.3986 139.097 27.7019 139.097 28.0099L139.096 28.3459C139.094 29.0739 138.896 29.7732 138.503 30.4437C138.184 30.9838 137.712 31.332 137.086 31.4883C136.731 31.5802 136.381 31.6349 136.036 31.6523C135.7 31.6696 135.354 31.6776 135 31.6763L134.006 31.6725ZM141.748 31.7161C141.365 31.7146 141.147 31.4991 141.092 31.0696C141.073 30.9015 141.06 30.7334 141.051 30.5654C141.042 30.3974 141.033 30.2293 141.024 30.0613C140.999 29.0439 140.964 28.0264 140.919 27.0089C140.875 25.982 140.85 24.9553 140.843 23.9286C140.844 23.6299 140.835 23.3312 140.817 23.0325C140.799 22.7337 140.791 22.435 140.791 22.1364L140.836 15.1225C140.857 14.4972 141.156 14.1577 141.735 14.1039C142.043 14.0678 142.346 14.0409 142.645 14.0234C142.953 13.9966 143.261 13.9838 143.569 13.9849C143.653 13.9853 143.737 13.9856 143.821 13.9859C143.905 13.9862 143.994 13.9912 144.087 14.0009C144.386 14.0207 144.596 14.0869 144.717 14.1993C144.838 14.3118 144.921 14.5128 144.967 14.8023C145.179 15.9044 145.461 17.0815 145.813 18.3335C146.164 19.5762 146.539 20.8423 146.937 22.1319L147.035 22.3562C147.1 22.3098 147.138 22.2726 147.147 22.2447C147.166 22.2074 147.18 22.1654 147.189 22.1188C147.491 20.7946 147.821 19.5032 148.179 18.2446C148.546 16.986 148.894 15.7926 149.223 14.6645C149.337 14.2263 149.566 14.0078 149.911 14.0092L149.995 14.0095C150.182 14.0382 150.335 14.1321 150.456 14.2913C150.577 14.441 150.642 14.6326 150.651 14.866L150.643 18.114L150.627 18.9959C150.625 19.6866 150.633 20.3726 150.65 21.054C150.676 21.7261 150.707 22.4076 150.743 23.0984C150.788 23.8546 150.823 24.6481 150.849 25.4788C150.875 26.3096 150.901 27.103 150.927 27.8591C150.945 28.1485 150.959 28.4333 150.967 28.7133C150.985 29.0027 151.003 29.2921 151.021 29.5815C151.039 29.7962 151.058 30.0063 151.076 30.2117C151.094 30.4265 151.131 30.6413 151.186 30.8561L151.214 31.0383C151.213 31.1969 151.157 31.3367 151.045 31.4576C150.942 31.5879 150.811 31.6714 150.652 31.7081C150.615 31.7173 150.563 31.7218 150.498 31.7215C150.367 31.721 150.246 31.6739 150.134 31.5801C150.023 31.4957 149.939 31.3741 149.883 31.2152C149.846 31.1124 149.818 31.0096 149.8 30.9069C149.791 30.8135 149.782 30.7154 149.773 30.6127C149.674 28.8204 149.585 26.9953 149.506 25.1377C149.436 23.2801 149.38 21.4505 149.337 19.649C149.328 19.6023 149.319 19.5603 149.31 19.5229C149.3 19.4855 149.287 19.4435 149.268 19.3967C149.146 19.6576 149.052 19.9233 148.986 20.1937C148.92 20.4548 148.854 20.7205 148.788 20.9909C148.637 21.6063 148.491 22.2171 148.35 22.8233C148.218 23.4201 148.085 24.0263 147.953 24.6418C147.925 24.7443 147.897 24.8515 147.868 24.9634C147.84 25.0753 147.803 25.1825 147.756 25.285C147.69 25.4061 147.606 25.4944 147.503 25.55C147.41 25.6057 147.307 25.6333 147.195 25.6329C146.98 25.632 146.803 25.5334 146.664 25.3368C146.608 25.2619 146.566 25.1825 146.538 25.0983C146.51 25.0049 146.483 24.9115 146.455 24.818C146.195 23.9864 145.927 23.164 145.649 22.3509C145.371 21.5285 145.121 20.6922 144.899 19.842C144.88 19.7953 144.866 19.7533 144.857 19.7159C144.857 19.6692 144.834 19.6318 144.787 19.6036L144.759 19.6035C144.731 19.6034 144.717 19.622 144.717 19.6594C144.707 20.0047 144.697 20.3499 144.687 20.6952C144.686 21.0312 144.685 21.3719 144.684 21.7172C144.683 22.2492 144.7 22.772 144.737 23.2855C144.773 23.7989 144.79 24.3217 144.789 24.8537C144.785 26.487 144.823 28.1065 144.903 29.7121C144.912 29.8708 144.916 30.0342 144.916 30.2022C144.925 30.3702 144.938 30.5383 144.956 30.7063L144.97 30.8604C144.97 31.1031 144.904 31.2848 144.773 31.4056C144.651 31.5265 144.46 31.6051 144.198 31.6414C143.797 31.6866 143.395 31.7037 142.994 31.6928C142.593 31.6913 142.191 31.6991 141.79 31.7162L141.748 31.7161ZM153.588 31.8733C153.252 31.872 153.014 31.8105 152.874 31.6886C152.744 31.5761 152.674 31.3425 152.666 30.9878C152.657 30.8291 152.648 30.6657 152.639 30.4977C152.639 30.339 152.64 30.1804 152.64 30.0217L152.655 29.4758L152.687 27.8659C152.688 27.3525 152.676 26.8438 152.649 26.3397C152.632 25.8263 152.623 25.3129 152.625 24.7996C152.626 24.3889 152.641 23.9737 152.67 23.5538L152.672 22.6578C152.701 22.0045 152.726 21.356 152.747 20.712C152.776 20.0588 152.792 19.4149 152.793 18.7802C152.795 18.1735 152.782 17.5622 152.756 16.9461L152.744 16.176C152.744 15.9613 152.745 15.756 152.745 15.56C152.755 15.3547 152.765 15.1447 152.775 14.9301C152.794 14.6595 152.855 14.4684 152.958 14.3568C153.061 14.2359 153.248 14.1573 153.519 14.121C153.892 14.0664 154.284 14.0399 154.695 14.0415L155.017 14.0427C155.493 14.0445 155.959 14.0463 156.417 14.048C156.874 14.0404 157.341 14.0376 157.817 14.0394C158.601 14.0424 159.38 14.0594 160.155 14.0903C160.22 14.0999 160.285 14.1095 160.351 14.1191C160.416 14.1286 160.481 14.1429 160.547 14.1618C160.677 14.209 160.78 14.284 160.854 14.387C160.928 14.4899 160.965 14.6021 160.965 14.7234L160.965 14.8074C160.927 15.0966 160.763 15.278 160.474 15.3515C160.427 15.3607 160.376 15.3698 160.32 15.379C160.273 15.3788 160.226 15.3786 160.18 15.3784L160.082 15.378C159.97 15.3683 159.858 15.3632 159.746 15.3628C159.643 15.3624 159.536 15.362 159.424 15.3615C159.162 15.3605 158.901 15.3642 158.64 15.3725C158.378 15.3809 158.117 15.3892 157.856 15.3975L157.52 15.3683C157.408 15.3678 157.296 15.3721 157.184 15.381C157.072 15.3899 156.96 15.3941 156.848 15.3937C156.661 15.393 156.567 15.4813 156.567 15.6586L156.551 16.3306C156.569 16.8346 156.581 17.3387 156.59 17.8427C156.607 18.3468 156.615 18.8555 156.614 19.3688C156.612 19.9848 156.602 20.6054 156.581 21.2307C156.561 21.8466 156.532 22.4065 156.493 22.9104C156.484 23.013 156.479 23.1157 156.479 23.2183C156.478 23.321 156.478 23.4237 156.478 23.5263L156.477 23.7223C156.477 23.8063 156.482 23.8717 156.491 23.9184C156.5 23.9651 156.523 24.0025 156.561 24.0306C156.598 24.0588 156.649 24.0776 156.714 24.0872C156.789 24.0969 156.887 24.1019 157.008 24.1024L157.33 24.1176L157.96 24.106C158.072 24.1064 158.184 24.1115 158.296 24.1213C158.408 24.1217 158.52 24.1408 158.632 24.1786C158.781 24.2258 158.893 24.3102 158.968 24.4318C159.051 24.5442 159.093 24.6657 159.093 24.7963C159.093 24.871 159.088 24.927 159.078 24.9643C159.05 25.1042 158.98 25.2252 158.867 25.3275C158.765 25.4204 158.643 25.4666 158.503 25.4661L158.377 25.4516C158.284 25.4326 158.195 25.4229 158.111 25.4226C158.027 25.4129 157.939 25.4079 157.845 25.4076L157.201 25.4191L156.781 25.4175C156.66 25.417 156.576 25.4447 156.529 25.5005C156.492 25.5471 156.473 25.631 156.472 25.7523L156.472 25.8643C156.49 26.0604 156.499 26.2564 156.499 26.4524C156.498 26.6391 156.498 26.8304 156.497 27.0264C156.496 27.4278 156.491 27.7777 156.481 28.0764C156.48 28.375 156.475 28.6363 156.465 28.8603C156.464 29.0936 156.459 29.299 156.449 29.4763C156.449 29.6629 156.448 29.8449 156.448 30.0223C156.448 30.2183 156.461 30.3443 156.489 30.4004C156.517 30.4659 156.601 30.4988 156.741 30.4994L159.961 30.3577C160.092 30.3582 160.208 30.3773 160.311 30.415C160.591 30.5188 160.73 30.7106 160.73 30.9906L160.73 31.0186C160.729 31.2706 160.603 31.4568 160.35 31.5772C160.247 31.6234 160.145 31.6511 160.042 31.66C159.949 31.669 159.851 31.6733 159.748 31.6729C159.16 31.6893 158.577 31.7151 157.998 31.7502C157.428 31.7853 156.854 31.8018 156.276 31.7996C156.22 31.7994 156.145 31.7991 156.052 31.7987C155.958 31.8077 155.86 31.812 155.758 31.8116L155.408 31.8103C155.109 31.8091 154.806 31.8173 154.498 31.8348C154.199 31.8617 153.895 31.8745 153.588 31.8733ZM166.799 24.1818C166.855 24.182 166.916 24.1776 166.981 24.1685C167.056 24.1594 167.14 24.1457 167.233 24.1274C167.261 24.1275 167.289 24.123 167.317 24.1138C167.345 24.1045 167.368 24.0953 167.387 24.086C167.891 23.9666 168.265 23.744 168.509 23.4183C168.762 23.0926 168.921 22.6919 168.988 22.2161C169.035 21.9456 169.068 21.6891 169.088 21.4465C169.116 21.1946 169.14 21.0034 169.159 20.8728C169.168 20.8261 169.173 20.7795 169.173 20.7328C169.173 20.6862 169.174 20.6395 169.174 20.5928C169.174 20.4995 169.169 20.4155 169.16 20.3408C169.16 20.2568 169.161 20.1821 169.161 20.1168C169.117 19.0619 168.933 18.0392 168.608 17.0486C168.479 16.6561 168.283 16.3427 168.023 16.1084C167.762 15.8647 167.45 15.6722 167.086 15.5308C167.011 15.5119 166.937 15.4976 166.862 15.488C166.787 15.469 166.713 15.4501 166.638 15.4311L166.526 15.4167C166.368 15.4161 166.288 15.5044 166.288 15.6818L166.3 16.2838C166.317 16.9279 166.33 17.5579 166.338 18.174C166.355 18.7807 166.372 19.3268 166.39 19.8122C166.388 20.2602 166.387 20.8062 166.386 21.4502C166.384 22.0848 166.387 22.7429 166.395 23.4242C166.394 23.7136 166.417 23.9143 166.463 24.0265C166.51 24.1293 166.622 24.1811 166.799 24.1818ZM163.602 31.7856C163.556 31.7854 163.504 31.7806 163.448 31.771C163.402 31.7708 163.355 31.766 163.309 31.7565C162.795 31.6705 162.535 31.3662 162.527 30.8435C162.5 30.2461 162.483 29.6253 162.475 28.9813C162.467 28.3466 162.46 27.7072 162.452 27.0632C162.453 26.4192 162.455 25.7798 162.457 25.1452C162.458 24.5012 162.46 23.8852 162.461 23.2972L162.466 21.2952C162.467 20.8192 162.464 20.3525 162.455 19.8951C162.456 19.4285 162.448 18.9618 162.431 18.495C162.413 17.9816 162.401 17.4683 162.392 16.9549C162.394 16.4416 162.386 15.9282 162.368 15.4148L162.369 15.1908C162.379 14.7988 162.454 14.5284 162.595 14.3796C162.744 14.2215 163.015 14.1292 163.407 14.1027L163.939 14.0908L164.975 14.1087L166.095 14.113L166.655 14.1432C167.448 14.2395 168.115 14.4941 168.655 14.9068C169.205 15.3196 169.605 15.9184 169.855 16.7034C170.216 17.8341 170.424 18.9829 170.477 20.1498L170.476 20.2758C170.476 20.3505 170.476 20.4625 170.476 20.6118C170.475 20.7518 170.465 20.9431 170.446 21.1857C170.427 21.3723 170.399 21.5962 170.361 21.8574C170.323 22.1186 170.28 22.3844 170.233 22.6549C170.166 23 170.049 23.3402 169.88 23.6755C169.721 24.0016 169.501 24.2948 169.22 24.555C168.949 24.8153 168.617 25.0287 168.224 25.1952C167.832 25.3524 167.379 25.4347 166.866 25.442C166.679 25.4413 166.562 25.4549 166.516 25.4827C166.469 25.5105 166.445 25.5944 166.445 25.7344L166.442 26.8404C166.442 27.1671 166.436 27.4984 166.426 27.8344C166.425 28.1704 166.424 28.5064 166.424 28.8424C166.423 28.9917 166.423 29.141 166.423 29.2904C166.422 29.4397 166.426 29.5891 166.435 29.7384L166.488 30.9986C166.487 31.3626 166.3 31.5906 165.927 31.6825C165.852 31.7009 165.777 31.7099 165.703 31.7096C165.637 31.7187 165.567 31.7278 165.493 31.7368C165.194 31.7544 164.895 31.7625 164.596 31.7614C164.298 31.7696 163.999 31.7778 163.7 31.786L163.602 31.7856ZM177.482 30.4526C177.688 30.4534 177.87 30.3141 178.029 30.0347C178.095 29.9136 178.147 29.7925 178.184 29.6713C178.231 29.5595 178.278 29.4383 178.325 29.3079C178.664 28.2638 178.914 27.2101 179.075 26.1467C179.245 25.0833 179.351 23.9964 179.391 22.8859L179.391 22.7879C179.394 21.6212 179.289 20.5008 179.077 19.4267C178.875 18.3432 178.597 17.2642 178.245 16.1895C178.227 16.1427 178.208 16.1007 178.189 16.0633C178.171 16.0258 178.152 15.9838 178.134 15.937C177.976 15.6844 177.766 15.5576 177.505 15.5566C177.402 15.5562 177.295 15.5838 177.182 15.6394C177.08 15.6857 176.991 15.76 176.916 15.8624C176.757 16.0764 176.635 16.3 176.55 16.533C176.466 16.766 176.39 17.0037 176.325 17.2461C176.127 18.0387 175.989 18.8362 175.913 19.6386C175.836 20.4316 175.773 21.2387 175.725 22.0599C175.706 22.2465 175.696 22.4331 175.695 22.6198C175.695 22.8064 175.695 22.9931 175.694 23.1798C175.691 24.2531 175.764 25.2847 175.911 26.2746C176.058 27.2645 176.27 28.25 176.547 29.2311C176.594 29.3899 176.645 29.5394 176.7 29.6796C176.756 29.8292 176.835 29.9695 176.937 30.1006C177.114 30.3346 177.296 30.4519 177.482 30.4526ZM175.001 31.8012C174.786 31.8003 174.595 31.7483 174.428 31.645C174.269 31.551 174.115 31.4338 173.966 31.2932C173.724 31.059 173.534 30.8016 173.394 30.521C173.264 30.2405 173.153 29.9461 173.06 29.6377C172.755 28.5726 172.524 27.5077 172.368 26.4431C172.221 25.3692 172.149 24.2582 172.152 23.1102C172.153 22.6622 172.168 22.2049 172.198 21.7384C172.246 20.9079 172.318 20.0915 172.414 19.2892C172.509 18.4776 172.655 17.6708 172.853 16.8689C173.07 16.039 173.445 15.3171 173.979 14.7032C174.091 14.5636 174.213 14.452 174.344 14.3685C174.474 14.285 174.633 14.2343 174.82 14.2164C175.072 14.1987 175.324 14.181 175.576 14.1633C175.828 14.1456 176.085 14.1372 176.346 14.1382C176.645 14.1393 176.939 14.1591 177.228 14.1976C177.517 14.2267 177.806 14.2838 178.096 14.3689C178.459 14.4729 178.753 14.6467 178.976 14.8903C179.2 15.1338 179.367 15.4331 179.478 15.7882C179.737 16.6105 179.964 17.4374 180.158 18.2688C180.361 19.0909 180.504 19.9361 180.586 20.8044C180.613 21.0845 180.636 21.3646 180.654 21.6447C180.681 21.9155 180.695 22.1862 180.694 22.4569L180.693 22.7649C180.643 23.9874 180.529 25.1769 180.348 26.3336C180.178 27.4809 179.909 28.6139 179.542 29.7325C179.495 29.891 179.443 30.0401 179.387 30.1799C179.331 30.329 179.265 30.4735 179.19 30.6132C178.88 31.2653 178.357 31.6413 177.619 31.7412C177.386 31.7776 177.152 31.8001 176.919 31.8085C176.695 31.817 176.466 31.8208 176.233 31.8199L175.001 31.8012ZM187.093 30.4894C187.28 30.4901 187.462 30.4581 187.639 30.3935C187.817 30.3288 187.994 30.2548 188.172 30.1715C188.405 30.0604 188.616 29.9305 188.803 29.7819C188.99 29.6426 189.153 29.4566 189.294 29.2238C189.435 29.0003 189.543 28.7207 189.618 28.385C189.703 28.0493 189.755 27.6342 189.775 27.1396L189.762 26.9015C189.752 26.8362 189.748 26.7755 189.748 26.7195C189.748 26.6542 189.748 26.5842 189.749 26.5095C189.749 26.4442 189.749 26.3835 189.749 26.3275C189.749 26.2622 189.745 26.1968 189.736 26.1314C189.709 25.5153 189.472 25.2064 189.024 25.2047C188.912 25.2043 188.772 25.2271 188.604 25.2731C188.277 25.3745 187.945 25.4619 187.609 25.5353C187.273 25.5994 186.937 25.6541 186.601 25.6995C186.461 25.7176 186.367 25.7592 186.32 25.8244C186.283 25.8802 186.264 25.9688 186.264 26.0902L186.188 28.3999L186.202 28.4C186.201 28.6426 186.201 28.8853 186.2 29.128C186.2 29.3706 186.204 29.6133 186.212 29.856C186.221 30.0614 186.258 30.1968 186.323 30.2624C186.389 30.3373 186.524 30.3985 186.729 30.446C186.85 30.4744 186.972 30.4889 187.093 30.4894ZM186.352 24.2565C186.483 24.1917 186.609 24.1362 186.73 24.0899C186.861 24.0344 186.992 23.9743 187.123 23.9094C187.515 23.7243 187.838 23.4828 188.091 23.1851C188.353 22.8781 188.536 22.5148 188.639 22.0952C188.762 21.5824 188.856 21.0741 188.923 20.5703C188.999 20.0573 189.038 19.5394 189.039 19.0167C189.04 18.7274 189.026 18.438 188.999 18.1486C188.972 17.8591 188.935 17.565 188.889 17.2662C188.852 17.0793 188.801 16.9018 188.736 16.7336C188.671 16.556 188.588 16.3877 188.486 16.2286C188.327 16.0133 188.141 15.854 187.927 15.7505C187.722 15.6377 187.498 15.5808 187.255 15.5799C187.012 15.579 186.793 15.6248 186.597 15.7174C186.522 15.7544 186.471 15.7962 186.443 15.8428C186.414 15.88 186.4 15.936 186.4 16.0106L186.299 17.3543C186.279 17.6715 186.265 17.9841 186.255 18.2921C186.254 18.6001 186.253 18.9128 186.252 19.2301C186.251 19.9488 186.258 20.6628 186.275 21.3722C186.292 22.0816 186.3 22.8003 186.298 23.5283L186.297 24.0603C186.296 24.079 186.301 24.107 186.31 24.1443C186.32 24.1724 186.334 24.2098 186.352 24.2565ZM185.69 31.856C185.4 31.8549 185.111 31.8445 184.822 31.8247C184.542 31.805 184.262 31.7619 183.982 31.6955C183.767 31.648 183.567 31.5819 183.38 31.4972C183.203 31.4125 183.022 31.3278 182.835 31.2431C182.649 31.1491 182.528 31.0179 182.472 30.8497C182.426 30.6909 182.403 30.5181 182.403 30.3314C182.395 29.9114 182.387 29.4914 182.378 29.0713C182.37 28.6606 182.366 28.2453 182.367 27.8253L182.49 23.2897C182.492 22.7577 182.488 22.2257 182.48 21.6937C182.472 21.1523 182.46 20.6156 182.442 20.0835L182.43 19.2575C182.432 18.6042 182.452 17.9509 182.491 17.2977C182.53 16.6445 182.564 15.9913 182.594 15.3381C182.604 15.0955 182.66 14.9137 182.763 14.7927C182.875 14.6625 183.067 14.5606 183.338 14.4869C183.655 14.4041 183.973 14.3307 184.29 14.2666C184.608 14.2024 184.93 14.1617 185.257 14.1443L185.831 14.1324C186.381 14.1345 186.932 14.1787 187.482 14.2648C188.191 14.3701 188.769 14.643 189.216 15.0834C189.663 15.5238 189.965 16.0989 190.122 16.8089C190.196 17.1545 190.246 17.5 190.274 17.8454C190.31 18.1816 190.328 18.5223 190.327 18.8677C190.326 19.2223 190.307 19.5816 190.269 19.9454C190.24 20.3093 190.201 20.6732 190.154 21.037C190.106 21.3542 190.054 21.6713 189.998 21.9884C189.941 22.2962 189.861 22.5992 189.757 22.8975C189.682 23.0652 189.598 23.2282 189.504 23.3865C189.41 23.5449 189.312 23.7078 189.209 23.8754C189.321 23.9132 189.424 23.9416 189.517 23.9606C189.61 23.9796 189.699 24.008 189.783 24.0456C190.118 24.2056 190.388 24.4166 190.593 24.6787C190.807 24.9315 190.937 25.2447 190.983 25.6182C191.038 26.0104 191.065 26.4072 191.064 26.8085C191.064 26.8925 191.059 27.0232 191.049 27.2005C191.039 27.3778 191.025 27.5644 191.006 27.7603C190.996 27.9563 190.981 28.1382 190.962 28.3061C190.943 28.4834 190.929 28.614 190.919 28.698C190.872 29.0525 190.773 29.3741 190.623 29.6629C190.482 29.9517 190.286 30.2169 190.033 30.4586C189.584 30.8582 189.107 31.1831 188.603 31.4331C188.098 31.6832 187.542 31.8164 186.936 31.8328C186.721 31.8413 186.511 31.8452 186.306 31.8444C186.11 31.853 185.904 31.8568 185.69 31.856Z" fill="#FDA3C4"/>
</svg>
